<svg width="1920" height="32" viewBox="0 0 1920 32" fill="none" xmlns="http://www.w3.org/2000/svg">
<g clip-path="url(#clip0_2764_3082)">
<path d="M6.08828 11.814C8.24869 11.814 10.0001 10.0647 10.0001 7.90698C10.0001 5.74921 8.24869 4 6.08828 4C3.92787 4 2.17651 5.74921 2.17651 7.90698C2.17651 10.0647 3.92787 11.814 6.08828 11.814Z" fill="#5E647A"/>
<path fill-rule="evenodd" clip-rule="evenodd" d="M3.98499 6.78391V8.59744C3.98499 9.02439 3.99314 9.07725 4.25369 9.10572L4.36361 9.11791C4.38804 9.13825 4.3799 9.20737 4.35547 9.21957C4.12341 9.21144 3.98907 9.20737 3.82622 9.20737C3.65523 9.20737 3.50866 9.21144 3.32953 9.21957C3.3051 9.20737 3.29696 9.14231 3.32139 9.11791L3.40688 9.10572C3.64301 9.07319 3.65116 9.02439 3.65116 8.59744V7.09701C3.65116 6.75138 3.64301 6.68226 3.45981 6.66192L3.31325 6.64566C3.28475 6.62126 3.28882 6.56027 3.32139 6.544C3.53716 6.51554 3.78958 6.51147 4.12749 6.51147C4.46539 6.51147 4.71781 6.5562 4.90915 6.67412C5.09643 6.79204 5.23485 7.00349 5.23485 7.28405C5.23485 7.65815 5.00279 7.84519 4.82773 7.93058C4.6486 8.01597 4.43283 8.05257 4.26591 8.05257C4.23741 8.04037 4.23741 7.97938 4.26183 7.97124C4.70152 7.88992 4.8603 7.64188 4.8603 7.28812C4.8603 6.8937 4.62824 6.63753 4.20484 6.63753C3.98907 6.63753 3.98499 6.65379 3.98499 6.78391ZM6.48471 7.1824L6.94882 8.12169C7.04246 8.3128 7.13203 8.49985 7.22973 8.67876H7.23788C7.3478 8.48765 7.44958 8.27621 7.55136 8.06883L7.93405 7.29219C8.11725 6.92216 8.23532 6.69852 8.24346 6.51147C8.38188 6.52367 8.46738 6.52367 8.5488 6.52367C8.65058 6.52367 8.78493 6.51961 8.91114 6.51147C8.93556 6.52774 8.93556 6.59686 8.91521 6.61313L8.82971 6.62126C8.57323 6.64566 8.54066 6.72292 8.54473 7.00755C8.55287 7.43857 8.55694 8.19082 8.58951 8.77635C8.60173 8.97966 8.59765 9.08945 8.789 9.10572L8.91928 9.11791C8.94371 9.14231 8.93963 9.2033 8.91114 9.21957C8.74422 9.21144 8.5773 9.20737 8.43074 9.20737C8.28824 9.20737 8.10504 9.21144 7.93812 9.21957C7.90962 9.19924 7.90555 9.14231 7.92998 9.11791L8.04804 9.10572C8.24753 9.08538 8.24753 9.02032 8.24753 8.76009L8.23532 7.06448H8.22718C8.19868 7.10921 8.04397 7.4345 7.96255 7.59309L7.60021 8.30467C7.41701 8.6625 7.23381 9.04472 7.16052 9.23177C7.15238 9.24397 7.1361 9.24803 7.11981 9.24803C7.11167 9.24803 7.09131 9.24397 7.08317 9.23177C7.01396 9.01626 6.81854 8.61777 6.72491 8.41853L6.3585 7.63375C6.273 7.4467 6.18751 7.23526 6.09794 7.04821H6.0898C6.07352 7.30032 6.0613 7.53616 6.04909 7.772C6.03688 8.02004 6.02059 8.38193 6.02059 8.72756C6.02059 9.02846 6.04502 9.09352 6.20379 9.10572L6.3585 9.11791C6.387 9.14231 6.38293 9.20737 6.35443 9.21957C6.21601 9.21144 6.05723 9.20737 5.90253 9.20737C5.77225 9.20737 5.62568 9.21144 5.48726 9.21957C5.46284 9.19924 5.45469 9.13825 5.47912 9.11791L5.56869 9.10572C5.73968 9.08132 5.79667 9.05692 5.8211 8.77229C5.84553 8.50392 5.86589 8.28027 5.89031 7.87772C5.91067 7.54023 5.92695 7.1946 5.9351 6.97096C5.94324 6.71479 5.91067 6.65379 5.66233 6.62126L5.59719 6.61313C5.57683 6.58873 5.5809 6.52774 5.61347 6.51147C5.73561 6.51961 5.83332 6.52367 5.9351 6.52367C6.02873 6.52367 6.13865 6.52367 6.273 6.51147C6.25672 6.67006 6.3585 6.92216 6.48471 7.1824Z" fill="#5E647A"/>
</g>
<path fill-rule="evenodd" clip-rule="evenodd" d="M78.7898 18.3408C77.4021 23.8793 71.7648 27.25 66.1982 25.8688C60.6339 24.488 57.2466 18.8781 58.6349 13.3399C60.0219 7.80075 65.6593 4.42977 71.2242 5.8106C76.7904 7.19143 80.1775 12.802 78.7898 18.3408Z" fill="#5E647A"/>
<path d="M73.293 14.367C73.4999 12.9913 72.4473 12.2518 71.008 11.7585L71.4749 9.89498L70.3349 9.61228L69.8804 11.4267C69.5807 11.3524 69.2729 11.2823 68.9671 11.2128L69.4248 9.38645L68.2856 9.10376L67.8184 10.9666C67.5703 10.9104 67.3268 10.8548 67.0904 10.7964L67.0917 10.7905L65.5197 10.3999L65.2164 11.6115C65.2164 11.6115 66.0622 11.8044 66.0443 11.8163C66.506 11.931 66.5895 12.235 66.5755 12.476L66.0437 14.599C66.0755 14.6071 66.1167 14.6187 66.1622 14.6368C66.1242 14.6274 66.0836 14.6171 66.0417 14.6071L65.2963 17.581C65.2398 17.7205 65.0966 17.9299 64.7739 17.8504C64.7852 17.8669 63.9453 17.6446 63.9453 17.6446L63.3794 18.9431L64.8628 19.3111C65.1388 19.3799 65.4093 19.4519 65.6755 19.5198L65.2037 21.4046L66.3424 21.6873L66.8096 19.8225C67.1206 19.9065 67.4226 19.984 67.718 20.057L67.2524 21.9131L68.3924 22.1958L68.8641 20.3145C70.808 20.6806 72.2697 20.5329 72.8849 18.7835C73.3807 17.3749 72.8602 16.5623 71.8375 16.0325C72.5823 15.8616 73.1434 15.374 73.293 14.367ZM70.6885 18.0013C70.3362 19.4099 67.9528 18.6484 67.18 18.4575L67.806 15.9604C68.5787 16.1523 71.0567 16.5323 70.6885 18.0013ZM71.0411 14.3467C70.7197 15.628 68.7359 14.977 68.0924 14.8174L68.6599 12.5526C69.3034 12.7122 71.3758 13.0101 71.0411 14.3467Z" fill="#23252F"/>
<path d="M88.7705 11.7566C89.613 11.7566 90.3409 11.9068 90.9526 12.2018C91.5672 12.4997 92.0744 12.9009 92.4812 13.4056C92.8825 13.9128 93.1812 14.5056 93.374 15.1851C93.5656 15.8664 93.6617 16.5989 93.6617 17.383C93.6617 18.5874 93.4399 19.7253 92.9922 20.7979C92.5445 21.8721 91.937 22.8039 91.1643 23.5986C90.3922 24.3924 89.4805 25.0182 88.4292 25.4806C87.3795 25.9432 86.2383 26.1745 85.013 26.1745C84.8545 26.1745 84.576 26.17 84.1825 26.1619C83.789 26.1539 83.3367 26.1135 82.8302 26.0453C82.3205 25.9746 81.7815 25.8699 81.2123 25.7297C80.6435 25.592 80.1032 25.3991 79.5945 25.1543L84.1438 6.13278L88.2185 5.50439L86.5896 12.2544C86.9383 12.0981 87.2896 11.9769 87.6403 11.8887C87.9912 11.8018 88.3679 11.7566 88.7705 11.7566ZM85.3526 22.958C85.9662 22.958 86.5445 22.8077 87.0877 22.5128C87.6325 22.2175 88.1026 21.8188 88.4964 21.3222C88.8903 20.8234 89.202 20.2616 89.4292 19.6338C89.6565 19.0061 89.7714 18.3512 89.7714 17.6699C89.7714 16.8328 89.6308 16.1798 89.3507 15.7078C89.0705 15.2377 88.552 15.0012 87.799 15.0012C87.5523 15.0012 87.2344 15.0481 86.8403 15.1318C86.4448 15.2206 86.0909 15.4051 85.7737 15.6826L84.0393 22.851C84.1438 22.8695 84.2364 22.8869 84.3153 22.9034C84.3925 22.9211 84.4779 22.9338 84.563 22.9425C84.6529 22.9525 84.7558 22.9577 84.8802 22.9577C85.0045 22.9577 85.1601 22.958 85.3526 22.958Z" fill="#5E647A"/>
<path d="M97.8875 25.8103H93.9956L97.2823 12.0482H101.201L97.8875 25.8103ZM99.7813 10.3714C99.2381 10.3714 98.7456 10.2105 98.3086 9.8881C97.868 9.56761 97.6498 9.07427 97.6498 8.40938C97.6498 8.04365 97.7245 7.70055 97.8726 7.37682C98.0229 7.05375 98.2193 6.77558 98.4654 6.53909C98.7112 6.30453 98.9959 6.11715 99.3193 5.97596C99.6446 5.83704 99.9907 5.76758 100.36 5.76758C100.902 5.76758 101.392 5.92847 101.831 6.2509C102.268 6.57495 102.488 7.06829 102.488 7.72962C102.488 8.09664 102.413 8.44104 102.264 8.76412C102.116 9.08719 101.919 9.36536 101.673 9.60185C101.429 9.83673 101.142 10.0235 100.819 10.1634C100.494 10.3045 100.149 10.3714 99.7813 10.3714Z" fill="#5E647A"/>
<path fill-rule="evenodd" clip-rule="evenodd" d="M104.611 8.61935L108.688 7.99097L107.687 12.0475H112.052L111.264 15.2389H106.925L105.769 20.0527C105.662 20.454 105.602 20.8288 105.585 21.177C105.566 21.5269 105.61 21.8274 105.716 22.0804C105.82 22.334 106.008 22.5294 106.281 22.6677C106.552 22.8082 106.941 22.879 107.451 22.879C107.871 22.879 108.28 22.8393 108.675 22.7604C109.068 22.6829 109.467 22.575 109.87 22.4338L110.16 25.4177C109.634 25.6096 109.065 25.7747 108.451 25.9137C107.836 26.0545 107.109 26.1224 106.268 26.1224C105.059 26.1224 104.122 25.9437 103.454 25.588C102.787 25.2297 102.315 24.7402 102.033 24.1206C101.755 23.5032 101.631 22.7914 101.665 21.9896C101.701 21.1858 101.823 20.3409 102.033 19.4512L104.611 8.61935Z" fill="#5E647A"/>
<path fill-rule="evenodd" clip-rule="evenodd" d="M111.881 20.3149C111.881 19.1295 112.073 18.0117 112.459 16.9652C112.844 15.9178 113.398 15.0019 114.117 14.2158C114.834 13.4337 115.707 12.814 116.734 12.3591C117.757 11.9068 118.902 11.6787 120.164 11.6787C120.954 11.6787 121.66 11.753 122.28 11.902C122.904 12.0522 123.468 12.2464 123.978 12.49L122.635 15.5269C122.285 15.3854 121.921 15.2607 121.545 15.1476C121.168 15.0322 120.708 14.9767 120.164 14.9767C118.865 14.9767 117.838 15.4222 117.074 16.3103C116.313 17.1991 115.929 18.3955 115.929 19.8962C115.929 20.7856 116.122 21.5048 116.509 22.055C116.894 22.6052 117.606 22.8788 118.638 22.8788C119.148 22.8788 119.64 22.8258 120.111 22.7224C120.586 22.6178 121.005 22.486 121.374 22.3302L121.665 25.4434C121.172 25.6334 120.63 25.8049 120.034 25.9552C119.437 26.1002 118.727 26.1755 117.903 26.1755C116.816 26.1755 115.896 26.0172 115.143 25.7054C114.389 25.3888 113.767 24.9685 113.277 24.436C112.784 23.9023 112.43 23.2791 112.211 22.5638C111.992 21.8492 111.881 21.0983 111.881 20.3149Z" fill="#5E647A"/>
<path d="M129.169 26.1755C128.24 26.1755 127.434 26.0346 126.749 25.7558C126.067 25.477 125.501 25.0858 125.054 24.5785C124.607 24.0739 124.272 23.4759 124.042 22.7867C123.813 22.0979 123.702 21.3352 123.702 20.4994C123.702 19.451 123.871 18.4029 124.213 17.3578C124.553 16.3103 125.058 15.3692 125.727 14.5328C126.389 13.695 127.207 13.0101 128.17 12.4761C129.132 11.9456 130.239 11.6787 131.482 11.6787C132.394 11.6787 133.196 11.8199 133.89 12.0987C134.581 12.3769 135.15 12.7714 135.599 13.276C136.044 13.7832 136.382 14.3787 136.609 15.0688C136.838 15.7563 136.951 16.521 136.951 17.3574C136.951 18.4026 136.784 19.4506 136.453 20.499C136.122 21.5422 135.63 22.4856 134.98 23.324C134.332 24.1605 133.522 24.8451 132.549 25.3768C131.576 25.9086 130.449 26.1755 129.169 26.1755ZM131.114 14.977C130.538 14.977 130.027 15.1437 129.591 15.4729C129.152 15.806 128.784 16.2247 128.488 16.7297C128.188 17.2369 127.965 17.79 127.815 18.3913C127.666 18.9938 127.593 19.5634 127.593 20.1046C127.593 20.9778 127.734 21.6579 128.013 22.1474C128.295 22.6342 128.801 22.8791 129.538 22.8791C130.117 22.8791 130.625 22.7137 131.064 22.381C131.5 22.0504 131.868 21.6314 132.167 21.1255C132.465 20.6208 132.689 20.0661 132.84 19.4639C132.987 18.8633 133.062 18.2905 133.062 17.7503C133.062 16.8793 132.921 16.1976 132.64 15.7088C132.36 15.2219 131.851 14.977 131.114 14.977Z" fill="#5E647A"/>
<path d="M141.192 25.8103H137.297L140.584 12.0482H144.504L141.192 25.8103ZM143.083 10.3714C142.54 10.3714 142.048 10.2105 141.612 9.8881C141.173 9.56761 140.953 9.07427 140.953 8.40938C140.953 8.04365 141.029 7.70055 141.177 7.37682C141.326 7.05375 141.523 6.77558 141.77 6.53909C142.014 6.30453 142.301 6.11715 142.624 5.97596C142.947 5.83704 143.294 5.76758 143.661 5.76758C144.205 5.76758 144.697 5.92847 145.134 6.2509C145.572 6.57495 145.794 7.06829 145.794 7.72962C145.794 8.09664 145.715 8.44104 145.568 8.76412C145.421 9.08719 145.223 9.36536 144.978 9.60185C144.731 9.83673 144.447 10.0235 144.124 10.1634C143.798 10.3045 143.453 10.3714 143.083 10.3714Z" fill="#5E647A"/>
<path fill-rule="evenodd" clip-rule="evenodd" d="M147.309 12.674C147.605 12.5881 147.934 12.4847 148.293 12.3723C148.653 12.2598 149.056 12.1552 149.505 12.0608C149.949 11.9636 150.451 11.8847 151.003 11.8237C151.554 11.7613 152.183 11.731 152.881 11.731C154.934 11.731 156.349 12.3257 157.13 13.5118C157.91 14.6978 158.046 16.3209 157.539 18.3783L155.749 25.809H151.831L153.566 18.5346C153.672 18.0804 153.755 17.6413 153.817 17.2123C153.879 16.7871 153.875 16.4123 153.803 16.088C153.734 15.7675 153.571 15.5051 153.318 15.3019C153.061 15.1019 152.673 15.0015 152.147 15.0015C151.639 15.0015 151.123 15.0557 150.596 15.1604L148.045 25.8087H144.126L147.309 12.674Z" fill="#5E647A"/>
<path d="M241.787 15.8086C241.666 12.6816 244.115 10.0584 247.242 9.93677H247.468C250.352 9.93677 252.054 11.6219 252.558 13.6023L250.751 14.2104C250.421 12.6816 249.014 11.6219 247.468 11.7435C245.609 11.7435 243.733 13.0985 243.733 15.8434C243.733 18.5882 245.557 19.8912 247.485 19.8912C249.049 19.9259 250.439 18.9009 250.856 17.4069L252.61 17.9802C251.985 20.2734 249.848 21.8369 247.468 21.7153C244.376 21.7674 241.822 19.3179 241.77 16.2256C241.77 16.0866 241.77 15.9476 241.787 15.8086Z" fill="#5E647A"/>
<path d="M256.119 21.455H254.226V9.90234H256.119V14.4365C256.658 13.7938 257.474 13.4289 258.326 13.4637C260.237 13.4637 261.175 14.8361 261.175 16.5386V21.455H259.333V16.8513C259.455 16.0348 258.882 15.2704 258.065 15.1488C257.961 15.1314 257.839 15.1314 257.735 15.1488C256.849 15.1488 256.119 15.8785 256.119 16.7644C256.119 16.8166 256.119 16.8513 256.119 16.9034V21.455Z" fill="#5E647A"/>
<path d="M265.275 17.0077L267.273 16.695C267.724 16.6429 267.846 16.3996 267.846 16.139C267.846 15.4789 267.412 14.9577 266.369 14.9577C265.57 14.8882 264.858 15.4789 264.771 16.278V16.3475L263.086 15.9653C263.225 14.6276 264.441 13.429 266.352 13.429C268.749 13.429 269.653 14.784 269.653 16.3649V20.2216C269.653 20.6385 269.67 21.0554 269.757 21.4724H268.037C267.967 21.1423 267.95 20.8122 267.967 20.4822C267.446 21.2813 266.526 21.7503 265.57 21.7156C264.232 21.8198 263.068 20.847 262.929 19.5093V19.3877C262.912 17.9458 263.937 17.1988 265.275 17.0077ZM267.828 18.2585V17.911L265.796 18.2064C265.223 18.2237 264.771 18.6928 264.754 19.2661C264.754 19.8394 265.223 20.2911 265.796 20.2737H265.883C266.856 20.3953 267.742 19.683 267.846 18.7102C267.846 18.6928 267.846 18.6928 267.846 18.6754C267.881 18.5364 267.863 18.3975 267.828 18.2585Z" fill="#5E647A"/>
<path d="M272.797 9.74609C273.457 9.74609 274.013 10.2673 274.03 10.9448C274.03 11.6049 273.492 12.1435 272.832 12.1609C272.172 12.1609 271.633 11.6223 271.616 10.9622C271.598 10.2846 272.137 9.74609 272.797 9.74609ZM271.894 21.4899V13.6896H273.752V21.4551L271.894 21.4899Z" fill="#5E647A"/>
<path d="M277.957 21.4547H276.098V13.6892H277.904V14.7315C278.391 13.9324 279.259 13.446 280.198 13.4633C282.091 13.4633 282.995 14.8358 282.995 16.5383V21.4547H281.153V16.851C281.153 15.8955 280.719 15.1311 279.555 15.1311C278.651 15.1311 277.922 15.8781 277.922 16.7815C277.922 16.851 277.922 16.9031 277.922 16.9726L277.957 21.4547Z" fill="#5E647A"/>
<path d="M287.112 9.90234H285.27V21.455H287.112V9.90234Z" fill="#5E647A"/>
<path d="M290.43 9.74609C291.09 9.74609 291.629 10.2846 291.646 10.9448C291.646 11.6049 291.107 12.1435 290.447 12.1609C289.787 12.1609 289.249 11.6223 289.231 10.9622V10.9448C289.231 10.2846 289.752 9.74609 290.43 9.74609ZM289.509 21.4899V13.6896H291.351V21.4551L289.509 21.4899Z" fill="#5E647A"/>
<path d="M295.59 21.4547H293.748V13.6892H295.555V14.7315C296.041 13.9324 296.91 13.446 297.848 13.4633C299.742 13.4633 300.662 14.8358 300.662 16.5383V21.4547H298.821V16.851C298.942 16.0345 298.369 15.2701 297.553 15.1485C297.448 15.1311 297.327 15.1311 297.223 15.1485C296.319 15.1485 295.59 15.8781 295.607 16.7815C295.607 16.851 295.607 16.9205 295.607 16.9726L295.59 21.4547Z" fill="#5E647A"/>
<path d="M306.969 16.9555L310.235 21.455H307.959L305.683 18.2411L304.727 19.2487V21.455H302.886V9.90234H304.727V16.8166L307.716 13.6895H310.165L306.969 16.9555Z" fill="#5E647A"/>
<path d="M219.863 6.77524L227.872 11.3789V20.6037L219.898 25.2248L211.889 20.6732V11.4137L219.863 6.77524ZM219.863 0L216.927 1.7025L208.936 6.34093L206 8.04343V24.0434L208.936 25.7286L216.945 30.3149L219.881 32L222.817 30.2975L230.79 25.6591L233.726 23.9566V7.9392L230.79 6.25407L222.782 1.65038L219.863 0Z" fill="#5E647A"/>
<g clip-path="url(#clip1_2764_3082)">
<path d="M370.048 4.0625C363.557 4.0625 358.295 9.32452 358.295 15.8156C358.295 22.3067 363.557 27.5688 370.048 27.5688C376.539 27.5688 381.801 22.3067 381.801 15.8156C381.801 9.32452 376.539 4.0625 370.048 4.0625ZM368.234 9.51256H371.869L370.587 14.3392L372.366 13.6893L372.382 13.7311L371.932 15.4205L370.125 16.0808L369.361 18.9553H375.401L374.781 21.2658H365.106L366.094 17.5535L364.695 18.0644L365.158 16.3227L366.557 15.8114L368.234 9.51256Z" fill="#5E647A"/>
<path fill-rule="evenodd" clip-rule="evenodd" d="M388.512 26.523H387.035V5.47681H388.512V26.523ZM394.419 26.523H392.942V11.3845H394.419V26.523ZM392.942 6.96061C392.942 6.64871 393.041 6.38498 393.238 6.1694C393.435 5.95382 393.703 5.84604 394.043 5.84604C394.383 5.84604 394.654 5.95382 394.856 6.1694C395.057 6.38498 395.158 6.64871 395.158 6.96061C395.158 7.27251 395.057 7.53395 394.856 7.74494C394.654 7.95593 394.383 8.06142 394.043 8.06142C393.703 8.06142 393.435 7.95593 393.238 7.74494C393.041 7.53395 392.942 7.27251 392.942 6.96061ZM401.984 7.69219V11.4747H405.222V12.813H401.984V22.6585C401.984 23.4778 402.14 24.0877 402.454 24.4883C402.767 24.8889 403.29 25.0891 404.022 25.0891C404.311 25.0891 404.778 25.0436 405.424 24.9526L405.496 26.2908C405.043 26.4456 404.427 26.523 403.646 26.523C402.461 26.523 401.598 26.1975 401.059 25.5466C400.519 24.8957 400.249 23.9375 400.249 22.6721V12.813H397.373V11.4747H400.249V7.69219H401.984ZM414.176 26.523C412.88 26.523 411.708 26.2097 410.66 25.5831C409.613 24.9565 408.798 24.0835 408.216 22.9639C407.634 21.8444 407.342 20.5889 407.342 19.1976V18.6033C407.342 17.1658 407.626 15.8712 408.195 14.7194C408.763 13.5676 409.554 12.6623 410.569 12.0035C411.583 11.3447 412.682 11.0153 413.866 11.0153C415.716 11.0153 417.184 11.6349 418.269 12.8743C419.354 14.1136 419.896 15.8067 419.896 17.9536V18.8797H409.019V19.1976C409.019 20.893 409.515 22.3051 410.505 23.4339C411.496 24.5626 412.743 25.127 414.246 25.127C415.148 25.127 415.944 24.9657 416.634 24.6432C417.325 24.3207 417.952 23.8047 418.515 23.0952L419.572 23.8831C418.332 25.643 416.533 26.523 414.176 26.523ZM414.024 12.4922C412.744 12.4922 411.666 12.9262 410.789 13.7941C409.912 14.6621 409.378 15.8281 409.189 17.2922H418.419V17.1212C418.372 15.7536 417.95 14.6401 417.153 13.781C416.357 12.9218 415.314 12.4922 414.024 12.4922ZM428.717 25.127C429.909 25.127 430.907 24.8022 431.713 24.1526C432.518 23.503 432.954 22.6622 433.021 21.6302H434.665C434.618 22.5424 434.322 23.374 433.779 24.1249C433.236 24.8759 432.514 25.4633 431.613 25.8872C430.712 26.311 429.747 26.523 428.717 26.523C426.687 26.523 425.078 25.8411 423.892 24.4774C422.705 23.1137 422.112 21.28 422.112 18.9764V18.4789C422.112 17.0046 422.378 15.7008 422.912 14.5674C423.446 13.434 424.211 12.5587 425.207 11.9413C426.203 11.3239 427.369 11.0153 428.703 11.0153C430.4 11.0153 431.799 11.5036 432.9 12.4803C434.001 13.4571 434.589 14.7425 434.665 16.3365H433.021C432.945 15.1663 432.509 14.2219 431.713 13.5031C430.917 12.7844 429.914 12.4251 428.703 12.4251C427.159 12.4251 425.96 12.9641 425.107 14.0422C424.254 15.1203 423.827 16.6314 423.827 18.5756V19.0594C423.827 20.9667 424.254 22.4548 425.107 23.5237C425.96 24.5926 427.164 25.127 428.717 25.127ZM437.25 18.548C437.25 17.1105 437.535 15.8159 438.106 14.6641C438.676 13.5123 439.482 12.6163 440.524 11.9759C441.566 11.3355 442.747 11.0153 444.067 11.0153C446.103 11.0153 447.753 11.7132 449.017 13.1092C450.28 14.5052 450.912 16.355 450.912 18.6585V19.0041C450.912 20.4507 450.626 21.7522 450.056 22.9086C449.486 24.065 448.682 24.9565 447.645 25.5831C446.608 26.2097 445.424 26.523 444.095 26.523C442.068 26.523 440.42 25.825 439.152 24.429C437.884 23.033 437.25 21.1833 437.25 18.8797V18.548ZM438.727 18.9945C438.727 20.7613 439.203 22.2115 440.156 23.3453C441.109 24.4791 442.358 25.046 443.903 25.046C445.439 25.046 446.683 24.4791 447.636 23.3453C448.589 22.2115 449.065 20.7157 449.065 18.8579V18.5437C449.065 17.4145 448.847 16.3808 448.411 15.4428C447.975 14.5048 447.364 13.7785 446.577 13.264C445.79 12.7495 444.889 12.4922 443.875 12.4922C442.358 12.4922 441.121 13.0636 440.163 14.2066C439.206 15.3495 438.727 16.8453 438.727 18.694V18.9945ZM456.081 26.523H454.604V11.3845H456.081V26.523ZM453.865 6.96061C453.865 6.64871 453.964 6.38498 454.161 6.1694C454.358 5.95382 454.626 5.84604 454.966 5.84604C455.307 5.84604 455.577 5.95382 455.779 6.1694C455.98 6.38498 456.081 6.64871 456.081 6.96061C456.081 7.27251 455.98 7.53395 455.779 7.74494C455.577 7.95593 455.307 8.06142 454.966 8.06142C454.626 8.06142 454.358 7.95593 454.161 7.74494C453.964 7.53395 453.865 7.27251 453.865 6.96061ZM462.111 11.6592L462.167 14.2006C462.737 13.2848 463.448 12.5865 464.299 12.1057C465.15 11.6249 466.09 11.3845 467.118 11.3845C468.746 11.3845 469.957 11.8332 470.751 12.7308C471.546 13.6283 471.948 14.9745 471.958 16.7695V26.523H470.289V16.7558C470.279 15.4278 469.992 14.4388 469.426 13.7885C468.86 13.1383 467.955 12.8132 466.712 12.8132C465.674 12.8132 464.755 13.1314 463.955 13.7679C463.156 14.4044 462.564 15.263 462.181 16.3436V26.523H460.512V11.6592H462.111Z" fill="#5E647A"/>
</g>
<path d="M532.432 21.2026C532.432 21.5074 532.177 21.7555 531.872 21.7555H521.085C521.354 24.4205 523.36 26.8517 526.181 26.8517C528.109 26.8517 529.54 26.1146 530.618 24.5765C530.774 24.3638 531.008 24.2292 531.305 24.3568C531.468 24.4276 531.582 24.5765 531.61 24.7466C531.639 24.9238 531.589 25.023 531.539 25.1223C530.455 27.0148 528.293 27.9433 526.174 27.9433C522.545 27.9433 519.958 24.697 519.958 21.2239C519.958 17.7507 522.545 14.5044 526.174 14.5044C529.803 14.4973 532.425 17.7366 532.432 21.2026ZM531.277 20.6781C531.043 18.013 529.002 15.5818 526.181 15.5818C523.36 15.5818 521.354 18.013 521.085 20.6781H531.277ZM545.524 14.7667C545.836 14.7667 546.063 15.036 546.063 15.3054C546.063 15.6172 545.829 15.8441 545.524 15.8441H542.632V27.192C542.632 27.4613 542.398 27.7307 542.093 27.7307C541.781 27.7307 541.555 27.4613 541.555 27.192V15.8441H538.776C538.464 15.8441 538.237 15.6102 538.237 15.3054C538.237 15.036 538.471 14.7667 538.776 14.7667H541.555V10.6131C541.555 10.3509 541.732 10.1099 541.987 10.0673C542.348 10.0106 542.632 10.2587 542.632 10.5989V14.7667H545.524ZM563.166 20.2528V27.1282C563.166 27.44 562.896 27.6669 562.627 27.6669C562.315 27.6669 562.088 27.433 562.088 27.1282V20.2528C562.088 17.935 560.777 15.6172 558.19 15.6172C554.873 15.6172 553.441 18.5162 553.632 21.4861C553.632 21.5641 553.668 21.9114 553.668 21.9468V27.1069C553.668 27.3692 553.491 27.6102 553.236 27.6527C552.874 27.7094 552.591 27.4613 552.591 27.1211V4.53869C552.591 4.26934 552.824 4 553.129 4C553.441 4 553.668 4.26934 553.668 4.53869V17.3184C554.596 15.6598 556.255 14.5399 558.183 14.5399C561.351 14.5399 563.166 17.3184 563.166 20.2528ZM582.509 21.2026C582.509 21.5074 582.254 21.7555 581.949 21.7555H571.154C571.423 24.4205 573.429 26.8517 576.25 26.8517C578.178 26.8517 579.61 26.1146 580.687 24.5765C580.843 24.3638 581.077 24.2292 581.375 24.3568C581.538 24.4276 581.651 24.5765 581.68 24.7466C581.708 24.9238 581.658 25.023 581.609 25.1223C580.524 27.0148 578.362 27.9433 576.243 27.9433C572.614 27.9433 570.027 24.697 570.027 21.2239C570.027 17.7507 572.614 14.5044 576.243 14.5044C579.879 14.4973 582.502 17.7366 582.509 21.2026ZM581.346 20.6781C581.113 18.013 579.071 15.5818 576.25 15.5818C573.429 15.5818 571.423 18.013 571.154 20.6781H581.346ZM595.749 15.2699C595.749 15.6172 595.558 15.8086 595.246 15.8512C592.078 16.3119 590.653 18.899 590.653 21.9114V27.0715C590.653 27.3337 590.476 27.5747 590.221 27.6172C589.859 27.674 589.576 27.4259 589.576 27.0856V15.3266C589.576 15.0644 589.753 14.8234 590.008 14.7809C590.369 14.7242 590.653 14.9722 590.653 15.3125V17.7082C591.539 16.2055 593.318 14.7738 595.168 14.7738C595.437 14.7667 595.749 14.9651 595.749 15.2699ZM613.469 21.2026C613.469 21.5074 613.214 21.7555 612.909 21.7555H602.121C602.391 24.4205 604.397 26.8517 607.218 26.8517C609.146 26.8517 610.577 26.1146 611.655 24.5765C611.811 24.3638 612.044 24.2292 612.342 24.3568C612.505 24.4276 612.619 24.5765 612.647 24.7466C612.675 24.9238 612.626 25.023 612.576 25.1223C611.492 27.0148 609.33 27.9433 607.21 27.9433C603.581 27.9433 600.994 24.697 600.994 21.2239C600.994 17.7507 603.581 14.5044 607.21 14.5044C610.84 14.4973 613.462 17.7366 613.469 21.2026ZM612.314 20.6781C612.08 18.013 610.039 15.5818 607.218 15.5818C604.397 15.5818 602.391 18.013 602.121 20.6781H612.314ZM630.884 15.4046V27.192C630.884 27.5038 630.615 27.7307 630.346 27.7307C630.034 27.7307 629.807 27.4967 629.807 27.192V24.9522C628.921 26.7312 627.333 28 625.327 28C622.124 28 620.345 25.2215 620.345 22.2871V15.3762C620.345 15.1069 620.578 14.8376 620.883 14.8376C621.195 14.8376 621.422 15.1069 621.422 15.3762V22.2871C621.422 24.6048 622.733 26.9226 625.32 26.9226C628.949 26.9226 629.8 23.5275 629.8 19.7779V15.3762C629.8 15.0644 630.112 14.7454 630.494 14.8588C630.728 14.9368 630.884 15.1636 630.884 15.4046ZM658.173 20.2103V27.1211C658.173 27.433 657.904 27.6598 657.634 27.6598C657.322 27.6598 657.096 27.4259 657.096 27.1211V20.2103C657.096 17.8925 655.784 15.6172 653.197 15.6172C649.951 15.6172 648.718 19.0904 648.718 21.7909V27.1211C648.718 27.433 648.448 27.6598 648.179 27.6598C647.867 27.6598 647.64 27.4259 647.64 27.1211V20.2103C647.64 17.8925 646.329 15.6172 643.742 15.6172C640.46 15.6172 639.106 18.2044 639.227 21.642C639.227 21.72 639.262 21.876 639.227 21.9114V27.1069C639.227 27.3692 639.05 27.6102 638.787 27.6527C638.426 27.7094 638.142 27.4613 638.142 27.1211V15.3266C638.142 15.0644 638.32 14.8234 638.575 14.7809C638.936 14.7242 639.22 14.9722 639.22 15.3125V17.2829C640.148 15.6243 641.807 14.5399 643.735 14.5399C645.932 14.5399 647.633 15.9291 648.328 17.9776C649.214 15.9716 650.95 14.5399 653.19 14.5399C656.359 14.5399 658.173 17.2758 658.173 20.2103Z" fill="#5E647A"/>
<path d="M711.404 16.1537C709.157 10.4922 707.404 5.75374 707.496 5.63066C707.619 5.53835 711.281 6.0922 715.619 6.86143L723.557 8.30758L725.619 10.3691L727.65 12.4614L721.927 19.446C718.757 23.2922 716.019 26.4307 715.834 26.4307C715.65 26.4614 713.681 21.8153 711.404 16.1537ZM716.204 18.2153C716.481 15.9691 716.665 14.0922 716.604 14.0307C716.542 13.9999 715.311 12.9845 713.865 11.8153C709.773 8.46143 710.05 8.61527 710.542 9.84604C710.788 10.4307 712.019 13.5076 713.281 16.6768C714.542 19.8153 715.588 22.3691 715.619 22.3384C715.65 22.3076 715.927 20.4614 716.204 18.2153ZM721.034 17.9999C723.004 15.6307 724.542 13.6614 724.511 13.5999C724.419 13.5076 718.419 14.523 718.234 14.646C718.081 14.7384 717.281 20.8307 717.25 21.8153C717.25 22.2153 717.311 22.4922 717.373 22.4307C717.434 22.3691 719.096 20.3691 721.034 17.9999ZM722.881 12.3076L725.004 11.9076L724.081 10.9845C723.034 9.93835 722.942 9.96912 720.634 11.9999C719.834 12.7076 719.711 12.923 720.173 12.7999C720.511 12.7384 721.742 12.4922 722.881 12.3076ZM719.434 11.0153C720.481 10.123 721.219 9.38451 721.065 9.32297C720.05 9.07681 711.896 7.6922 711.711 7.75374C711.465 7.84604 716.911 12.5537 717.311 12.5845C717.404 12.6153 718.357 11.9076 719.434 11.0153Z" fill="#5E647A"/>
<path d="M771.835 17.8459L768.173 13.5383L768.081 17.3844C768.019 20.9844 767.958 21.2306 767.404 21.2306C766.819 21.2306 766.789 20.9844 766.789 15.5383C766.789 12.3998 766.85 9.84595 766.912 9.84595C767.004 9.84595 768.696 11.7229 770.696 14.0306L774.327 18.2152L774.419 14.4921C774.481 11.0152 774.542 10.769 775.096 10.769C775.681 10.769 775.712 11.0152 775.712 16.4613C775.712 19.5998 775.681 22.1536 775.619 22.1536C775.558 22.1536 773.865 20.2152 771.835 17.8459Z" fill="#5E647A"/>
<path d="M734.173 17.5383C734.173 14.0613 734.204 13.8459 734.788 13.8459C735.373 13.8459 735.404 14.0613 735.404 17.5383C735.404 21.0152 735.373 21.2306 734.788 21.2306C734.204 21.2306 734.173 21.0152 734.173 17.5383Z" fill="#5E647A"/>
<path d="M736.019 17.5383C736.019 14.0613 736.05 13.8459 736.635 13.8459C737.219 13.8459 737.25 14.0613 737.25 17.5383C737.25 21.0152 737.219 21.2306 736.635 21.2306C736.05 21.2306 736.019 21.0152 736.019 17.5383Z" fill="#5E647A"/>
<path d="M742.481 15.9998V10.769H746.05C747.988 10.769 749.865 10.9229 750.204 11.0767C750.511 11.2614 751.004 11.8152 751.25 12.3075C751.988 13.7229 751.835 14.9229 750.788 16.1229L749.835 17.1998L750.788 19.046C751.281 20.0614 751.711 20.9844 751.711 21.0767C751.711 21.169 751.404 21.2306 751.035 21.2306C750.481 21.2306 750.081 20.769 749.25 19.2306C748.235 17.3229 748.111 17.2306 747.035 17.2306H745.865V19.2306C745.865 21.0152 745.804 21.2306 745.25 21.2306C744.696 21.2306 744.635 21.0152 744.635 18.646V16.0921L746.973 15.9383C749.373 15.7844 749.927 15.4767 750.327 14.246C750.45 13.7229 750.296 13.3537 749.742 12.769C749.035 12.0614 748.727 11.9998 746.327 11.9998H743.711V16.6152C743.711 21.0152 743.681 21.2306 743.096 21.2306C742.511 21.2306 742.481 21.0152 742.481 15.9998Z" fill="#5E647A"/>
<path d="M757.404 20.769C754.204 19.6306 752.942 15.7229 754.881 12.9229C755.804 11.5383 757.373 10.769 759.281 10.769C763.096 10.769 765.496 14.7998 763.804 18.369C762.819 20.4921 759.804 21.6306 757.404 20.769ZM761.711 18.769C763.404 17.169 763.465 14.7383 761.834 13.1998C759.373 10.8921 755.373 12.5229 755.404 15.7844C755.434 17.3537 755.927 18.3075 757.127 19.1075C758.327 19.9383 760.665 19.7537 761.711 18.769Z" fill="#5E647A"/>
<path d="M758.481 15.8769C758.481 15.2308 758.635 15.0769 759.281 15.0769C759.927 15.0769 760.05 15.2 759.958 15.7846C759.896 16.2154 759.619 16.4923 759.188 16.5538C758.604 16.6461 758.481 16.5231 758.481 15.8769Z" fill="#5E647A"/>
<path d="M768.635 19.0767C768.635 17.1382 768.696 16.9229 769.25 16.9229C769.804 16.9229 769.866 17.1382 769.866 19.0767C769.866 21.0152 769.804 21.2305 769.25 21.2305C768.696 21.2305 768.635 21.0152 768.635 19.0767Z" fill="#5E647A"/>
<path d="M731.096 11.3844C731.096 10.7998 731.312 10.769 735.712 10.769C740.112 10.769 740.327 10.7998 740.327 11.3844C740.327 11.969 740.112 11.9998 735.712 11.9998C731.312 11.9998 731.096 11.969 731.096 11.3844Z" fill="#5E647A"/>
<path d="M836.942 28C843.57 28 848.942 22.6274 848.942 16C848.942 9.37258 843.57 4 836.942 4C830.315 4 824.942 9.37258 824.942 16C824.942 22.6274 830.315 28 836.942 28Z" fill="#5E647A"/>
<path d="M838.222 17.1074V17.1055C838.139 17.1113 837.71 17.1363 836.757 17.1363C835.995 17.1363 835.461 17.1151 835.272 17.1055V17.1074C832.341 16.9781 830.155 16.4688 830.155 15.8572C830.155 15.2476 832.343 14.7363 835.272 14.6071V16.6C835.463 16.6135 836.013 16.6463 836.771 16.6463C837.681 16.6463 838.137 16.6077 838.222 16.6V14.609C841.146 14.7402 843.326 15.2495 843.326 15.8592C843.326 16.4688 841.144 16.9781 838.222 17.1093V17.1074ZM838.222 14.4026V12.6199H842.302V9.90161H831.193V12.6199H835.274V14.4026C831.957 14.555 829.465 15.2109 829.465 15.9981C829.465 16.7852 831.959 17.4412 835.274 17.5955V23.31H838.223V17.5955C841.534 17.4431 844.023 16.7871 844.023 16C844.023 15.2148 841.534 14.5569 838.223 14.4045" fill="#23252F"/>
<path d="M859.136 10.6443V13.5266H861.937V15.6893H859.116V20.0746C859.116 21.043 859.651 21.5157 860.434 21.5157C860.826 21.5157 861.279 21.3922 861.65 21.207L862.35 23.3485C861.63 23.636 861.032 23.7594 860.27 23.7807C858.067 23.8636 856.626 22.6077 856.626 20.0746V15.6893H854.731V13.5266H856.626V10.9125L859.136 10.6443ZM907.431 13.3916L907.616 14.5646C908.399 13.3086 909.449 13.1234 910.479 13.1234C911.529 13.1234 912.538 13.5344 913.093 14.09L911.961 16.272C911.446 15.8398 910.973 15.6122 910.149 15.6122C908.832 15.6122 907.616 16.3125 907.616 18.1858V23.5395H905.104V13.3877L907.431 13.3916ZM901.275 17.2829C901.111 15.9652 900.08 15.3054 898.639 15.3054C897.281 15.3054 896.168 15.9652 895.797 17.2829H901.275ZM895.757 19.3627C895.921 20.6186 897.013 21.5254 898.784 21.5254C899.71 21.5254 900.925 21.1742 901.502 20.5781L903.107 22.1639C902.037 23.2752 900.287 23.8115 898.741 23.8115C895.242 23.8115 893.16 21.6488 893.16 18.3961C893.16 15.3074 895.261 13.0829 898.556 13.0829C901.954 13.0829 904.076 15.1839 903.684 19.3627H895.757ZM884.679 9.12793V14.7691C885.586 13.5961 886.697 13.245 887.851 13.245C890.733 13.245 892.01 15.2012 892.01 18.1877V23.5414H889.498V18.209C889.498 16.3549 888.53 15.5736 887.191 15.5736C885.707 15.5736 884.679 16.8295 884.679 18.3537V23.5434H882.167V9.12986L884.679 9.12793ZM878.008 10.5286V13.4109H880.809V15.5736H877.988V19.9588C877.988 20.9273 878.525 21.4 879.306 21.4C879.698 21.4 880.151 21.2765 880.522 21.0913L881.222 23.2328C880.502 23.5202 879.904 23.6437 879.142 23.6649C876.939 23.7479 875.498 22.49 875.498 19.9588V15.5736H873.603V13.4109H875.498V10.7967L878.008 10.5286ZM871.068 17.2829C870.904 15.9652 869.874 15.3054 868.433 15.3054C867.075 15.3054 865.961 15.9652 865.591 17.2829H871.068ZM865.55 19.3627C865.714 20.6186 866.806 21.5254 868.578 21.5254C869.504 21.5254 870.719 21.1742 871.296 20.5781L872.901 22.1639C871.83 23.2752 870.08 23.8115 868.535 23.8115C865.033 23.8115 862.954 21.6488 862.954 18.3961C862.954 15.3074 865.055 13.0829 868.348 13.0829C871.745 13.0829 873.866 15.1839 873.476 19.3627H865.55Z" fill="#5E647A"/>
<path d="M995.053 11.5601C995.893 12.3001 996.313 13.4001 996.313 14.8201V22.2001H994.473V15.4601C994.473 14.2601 994.213 13.3801 993.693 12.8401C993.173 12.3001 992.493 12.0401 991.633 12.0401C991.03 12.0392 990.435 12.1761 989.893 12.4401C989.333 12.7401 988.873 13.1994 988.573 13.7601C988.213 14.3601 988.053 15.1401 988.053 16.0601V22.2001H986.193V11.0001L987.893 11.7001L987.933 12.4601C988.285 11.7867 988.847 11.2461 989.533 10.9201C990.243 10.5744 991.024 10.403 991.813 10.4201C993.12 10.4201 994.2 10.8001 995.053 11.5601Z" fill="#5E647A"/>
<path d="M1009.45 17.1201H1000.75C1000.85 18.3001 1001.25 19.2001 1001.91 19.8401C1002.57 20.4801 1003.45 20.8201 1004.51 20.8201C1005.24 20.8404 1005.97 20.6897 1006.63 20.3801C1007.16 20.1162 1007.57 19.6577 1007.77 19.1001L1009.31 19.9201C1008.89 20.7058 1008.25 21.3522 1007.47 21.7801C1006.71 22.2201 1005.71 22.4401 1004.51 22.4401C1002.77 22.4401 1001.41 21.9001 1000.41 20.8401C999.413 19.7801 998.933 18.3001 998.933 16.4201C998.933 14.5401 999.393 13.0801 1000.35 12.0201C1001.31 10.9601 1002.63 10.4201 1004.37 10.4201C1005.36 10.3938 1006.33 10.6433 1007.17 11.1401C1007.94 11.6004 1008.56 12.2745 1008.95 13.0801C1009.36 13.9354 1009.57 14.8728 1009.55 15.8201C1009.55 16.2552 1009.52 16.6896 1009.45 17.1201ZM1001.91 12.9401C1001.29 13.5401 1000.91 14.3801 1000.77 15.4801H1007.77C1007.65 14.4001 1007.29 13.5601 1006.71 12.9601C1006.13 12.3601 1005.35 12.0401 1004.37 12.0401C1003.39 12.0401 1002.53 12.3401 1001.91 12.9401Z" fill="#5E647A"/>
<path d="M1021.77 12.0199C1022.77 13.0799 1023.27 14.5399 1023.27 16.4199C1023.27 18.2999 1022.77 19.7799 1021.77 20.8399C1020.77 21.8999 1019.41 22.4399 1017.67 22.4399C1015.93 22.4399 1014.57 21.8999 1013.57 20.8399C1012.57 19.7799 1012.09 18.2999 1012.09 16.4199C1012.09 14.5399 1012.59 13.0799 1013.57 12.0199C1014.55 10.9599 1015.93 10.4199 1017.67 10.4199C1019.41 10.4199 1020.79 10.9599 1021.77 12.0199ZM1014.93 13.1999C1014.27 13.9799 1013.93 15.0599 1013.93 16.4199C1013.93 17.7799 1014.27 18.8799 1014.93 19.6599C1015.59 20.4399 1016.51 20.8399 1017.67 20.8399C1018.83 20.8399 1019.77 20.4399 1020.43 19.6599C1021.09 18.8799 1021.41 17.7999 1021.41 16.4199C1021.41 15.0399 1021.09 13.9799 1020.43 13.1999C1019.77 12.4199 1018.85 12.0199 1017.67 12.0199C1016.49 12.0199 1015.59 12.3999 1014.93 13.1999Z" fill="#5E647A"/>
<path d="M961.093 8.2V24.26L971.533 28V11.8L982.793 7.66L972.573 4L961.093 8.2Z" fill="#5E647A"/>
<path d="M972.373 12.4V21.06L982.793 24.78V8.54004L972.373 12.4Z" fill="#5E647A"/>
<g clip-path="url(#clip2_2764_3082)">
<path d="M1078.61 14.0845L1083.27 9.42516L1087.94 14.0883L1090.65 11.3757L1083.27 4L1075.9 11.3738L1078.61 14.0845Z" fill="#5E647A"/>
<path d="M1071.27 16.0002L1073.98 13.2887L1076.7 16.0002L1073.98 18.7118L1071.27 16.0002Z" fill="#5E647A"/>
<path d="M1078.61 17.9155L1083.27 22.5767L1087.94 17.9136L1090.65 20.6224L1090.65 20.6243L1083.27 28L1075.9 20.6281L1075.9 20.6243L1078.61 17.9155Z" fill="#5E647A"/>
<path d="M1089.85 16.0012L1092.56 13.2896L1095.27 16.0012L1092.56 18.7128L1089.85 16.0012Z" fill="#5E647A"/>
<path d="M1086.02 15.999L1083.27 13.2466L1081.24 15.2805L1081.01 15.5137L1080.52 15.9952L1080.52 15.999L1080.52 16.0047L1083.27 18.7533L1086.02 16.0009L1086.03 15.999H1086.02Z" fill="#5E647A"/>
<path d="M1099.5 9.81543H1105.4C1106.87 9.81543 1107.97 10.1945 1108.72 10.9528C1109.01 11.2329 1109.23 11.5675 1109.38 11.9364C1109.53 12.3052 1109.6 12.7006 1109.59 13.0986V13.1346C1109.6 13.4606 1109.55 13.7854 1109.46 14.0976C1109.37 14.3662 1109.25 14.6216 1109.1 14.8558C1108.95 15.0767 1108.77 15.2758 1108.57 15.4472C1108.38 15.6166 1108.16 15.7629 1107.93 15.8832C1108.59 16.1144 1109.19 16.5049 1109.67 17.0205C1110.09 17.5008 1110.3 18.1642 1110.3 19.0109V19.0469C1110.31 19.5757 1110.2 20.0997 1109.97 20.5748C1109.74 21.0125 1109.41 21.3876 1109.01 21.6666C1108.55 21.9741 1108.04 22.1957 1107.5 22.3206C1106.86 22.4721 1106.2 22.5453 1105.55 22.5386H1099.5V9.81543ZM1104.81 14.96C1105.32 14.9847 1105.83 14.8749 1106.28 14.6416C1106.46 14.538 1106.61 14.3869 1106.7 14.2053C1106.8 14.0238 1106.84 13.819 1106.83 13.6142V13.5782C1106.84 13.3895 1106.8 13.2015 1106.71 13.0315C1106.63 12.8615 1106.51 12.7151 1106.35 12.6057C1106.04 12.3821 1105.58 12.2702 1104.99 12.2702H1102.23V14.96H1104.81ZM1105.56 20.0876C1106.06 20.1161 1106.57 19.9998 1107.02 19.7521C1107.19 19.6407 1107.33 19.4849 1107.42 19.3009C1107.51 19.1168 1107.56 18.9113 1107.54 18.7057V18.6697C1107.55 18.4743 1107.51 18.2802 1107.42 18.1044C1107.34 17.9286 1107.21 17.7764 1107.05 17.6613C1106.73 17.4085 1106.2 17.2821 1105.47 17.2821H1102.23V20.0876H1105.56Z" fill="#5E647A"/>
<path d="M1113.82 9.81543H1116.62V22.5424H1113.82V9.81543Z" fill="#5E647A"/>
<path d="M1120.85 9.81543H1123.44L1129.4 17.648V9.81543H1132.17V22.5424H1129.78L1123.62 14.452V22.5424H1120.85V9.81543Z" fill="#5E647A"/>
<path d="M1140.64 9.72485H1143.22L1148.68 22.5428H1145.75L1144.59 19.688H1139.21L1138.04 22.5428H1135.19L1140.64 9.72485ZM1143.59 17.2162L1141.89 13.0876L1140.21 17.2162H1143.59Z" fill="#5E647A"/>
<path d="M1151.7 9.81543H1154.28L1160.25 17.648V9.81543H1163.01V22.5424H1160.63L1154.47 14.452V22.5424H1151.7V9.81543Z" fill="#5E647A"/>
<path d="M1173.09 22.7663C1172.2 22.7739 1171.31 22.6011 1170.49 22.2582C1169.71 21.938 1169.01 21.4658 1168.42 20.8693C1167.83 20.2729 1167.36 19.5644 1167.05 18.7855C1166.72 17.9708 1166.56 17.0996 1166.56 16.2208V16.1848C1166.55 14.4527 1167.21 12.7841 1168.42 11.5387C1169.01 10.9304 1169.72 10.4481 1170.5 10.1208C1171.35 9.76779 1172.27 9.59172 1173.19 9.60332C1173.74 9.59925 1174.28 9.64813 1174.82 9.74928C1175.28 9.83603 1175.72 9.97007 1176.16 10.1492C1176.55 10.3139 1176.92 10.5211 1177.26 10.7672C1177.6 11.0072 1177.92 11.2748 1178.21 11.5671L1176.43 13.622C1175.98 13.2024 1175.47 12.8471 1174.92 12.5661C1174.37 12.3071 1173.78 12.1773 1173.18 12.187C1172.68 12.1817 1172.19 12.2827 1171.73 12.4834C1171.27 12.684 1170.86 12.9798 1170.53 13.3509C1170.19 13.7211 1169.93 14.1499 1169.76 14.6152C1169.58 15.1071 1169.49 15.6279 1169.49 16.1526V16.1886C1169.49 16.7124 1169.58 17.2324 1169.76 17.724C1169.93 18.1911 1170.19 18.6223 1170.52 18.9959C1170.85 19.3717 1171.26 19.6718 1171.72 19.8758C1172.17 20.0799 1172.67 20.1832 1173.17 20.1788C1173.81 20.1989 1174.44 20.0615 1175.02 19.7788C1175.56 19.4817 1176.07 19.1146 1176.52 18.687L1178.3 20.4878C1177.98 20.8292 1177.64 21.1461 1177.28 21.4356C1176.92 21.7175 1176.54 21.9585 1176.13 22.154C1175.69 22.3599 1175.23 22.512 1174.75 22.607C1174.21 22.7169 1173.65 22.7702 1173.09 22.7663Z" fill="#5E647A"/>
<path d="M1181.6 9.81543H1191.18V12.3062H1184.36V14.888H1190.37V17.3788H1184.37V20.0516H1191.28V22.5424H1181.61L1181.6 9.81543Z" fill="#5E647A"/>
</g>
<g clip-path="url(#clip3_2764_3082)">
<path fill-rule="evenodd" clip-rule="evenodd" d="M1251.56 11.908H1249.85V15.2882H1252.54V16.7035H1249.85V20.0836L1251.65 20.0836C1252.11 20.0836 1255.44 20.1358 1255.43 16.1509C1255.43 12.1661 1252.2 11.908 1251.56 11.908Z" fill="#5E647A"/>
<path d="M1251.27 4C1244.65 4 1239.27 9.37252 1239.27 16C1239.27 22.6275 1244.65 28 1251.27 28C1257.9 28 1263.27 22.6275 1263.27 16C1263.27 9.37252 1257.9 4 1251.27 4ZM1251.74 22.4812H1247.4V16.7037H1245.87V15.2884H1247.4V9.51052H1251.13C1252.01 9.51052 1257.86 9.32728 1257.86 16.1043C1257.86 22.9934 1251.75 22.4812 1251.75 22.4812H1251.74Z" fill="#5E647A"/>
<path fill-rule="evenodd" clip-rule="evenodd" d="M1273.55 13.3854H1274.58C1275.12 13.3854 1275.58 13.2668 1275.94 13.0296C1276.31 12.7925 1276.6 12.4791 1276.82 12.0894C1277.04 11.6998 1277.2 11.248 1277.3 10.7341C1277.39 10.2202 1277.44 9.69224 1277.44 9.15012C1277.44 8.50635 1277.3 7.99247 1277.01 7.60847C1276.72 7.22447 1276.21 7.03247 1275.48 7.03247H1274.44L1273.55 13.3854ZM1270.62 4.22024H1276.66C1278.36 4.22024 1279.64 4.64376 1280.52 5.49082C1281.39 6.33789 1281.83 7.51811 1281.83 9.03153C1281.83 10.1158 1281.67 11.1068 1281.36 12.0047C1281.05 12.9026 1280.61 13.6734 1280.03 14.3172C1279.46 14.9609 1278.76 15.4607 1277.95 15.8165C1277.14 16.1722 1276.22 16.3501 1275.21 16.3501H1268.92L1270.62 4.22024ZM1287.2 11.2C1287.2 11.4824 1287.23 11.7478 1287.29 11.9962C1287.34 12.2447 1287.43 12.4621 1287.56 12.6485C1287.68 12.8348 1287.84 12.9845 1288.05 13.0974C1288.25 13.2104 1288.5 13.2668 1288.79 13.2668C1289.14 13.2668 1289.47 13.1793 1289.77 13.0042C1290.07 12.8292 1290.32 12.5751 1290.54 12.2419C1290.75 11.9087 1290.92 11.5049 1291.05 11.0306C1291.17 10.5562 1291.23 10.0198 1291.23 9.42118C1291.23 9.13882 1291.21 8.86777 1291.16 8.608C1291.11 8.34823 1291.02 8.11953 1290.89 7.92188C1290.77 7.72423 1290.61 7.56894 1290.4 7.456C1290.2 7.34306 1289.94 7.28659 1289.64 7.28659C1289.17 7.28659 1288.77 7.42494 1288.45 7.70165C1288.14 7.97835 1287.89 8.32 1287.7 8.72659C1287.51 9.13318 1287.38 9.56235 1287.31 10.0141C1287.24 10.4659 1287.2 10.8612 1287.2 11.2ZM1290.1 4C1291.02 4 1291.83 4.12706 1292.53 4.38118C1293.22 4.6353 1293.8 4.98823 1294.26 5.44C1294.73 5.89177 1295.08 6.4367 1295.31 7.07482C1295.54 7.71294 1295.65 8.41035 1295.65 9.16706C1295.65 10.1384 1295.5 11.0701 1295.19 11.9624C1294.88 12.8546 1294.41 13.6423 1293.8 14.3256C1293.18 15.0089 1292.42 15.5539 1291.5 15.9605C1290.59 16.3671 1289.53 16.5704 1288.34 16.5704C1287.41 16.5704 1286.6 16.4489 1285.9 16.2061C1285.21 15.9633 1284.63 15.6188 1284.17 15.1727C1283.7 14.7266 1283.36 14.1929 1283.13 13.5718C1282.89 12.9506 1282.78 12.256 1282.78 11.488C1282.78 10.5054 1282.93 9.56518 1283.24 8.66729C1283.56 7.76941 1284.02 6.97318 1284.63 6.27859C1285.25 5.584 1286.01 5.03059 1286.93 4.61835C1287.84 4.20612 1288.9 4 1290.1 4ZM1304.67 4C1305.54 4 1306.29 4.05647 1306.94 4.16941C1307.58 4.28235 1308.17 4.46306 1308.72 4.71153L1308.28 7.79482C1307.85 7.53506 1307.37 7.32612 1306.84 7.168C1306.3 7.00988 1305.75 6.93082 1305.18 6.93082C1304.46 6.93082 1303.85 7.05223 1303.34 7.29506C1302.82 7.53788 1302.4 7.85412 1302.06 8.24376C1301.72 8.63341 1301.47 9.07106 1301.3 9.55671C1301.14 10.0424 1301.06 10.528 1301.06 11.0136C1301.06 11.7591 1301.24 12.3661 1301.62 12.8348C1301.99 13.3035 1302.56 13.5379 1303.33 13.5379H1304.34L1304.57 12.0471H1303.19L1303.55 9.57365H1308.38L1307.46 15.9774C1306.75 16.1694 1306 16.3162 1305.2 16.4179C1304.4 16.5195 1303.6 16.5704 1302.79 16.5704C1301.78 16.5704 1300.9 16.4348 1300.14 16.1638C1299.37 15.8927 1298.73 15.5172 1298.22 15.0372C1297.71 14.5572 1297.32 13.9896 1297.05 13.3346C1296.79 12.6795 1296.65 11.968 1296.65 11.2C1296.65 9.91246 1296.9 8.81412 1297.41 7.90494C1297.91 6.99576 1298.55 6.25036 1299.34 5.66871C1300.12 5.08706 1300.99 4.66353 1301.93 4.39812C1302.87 4.1327 1303.79 4 1304.67 4ZM1310.97 4.22024H1320.27L1319.81 7.47294H1314.73L1314.54 8.82824H1319.39L1319 11.6066H1314.15L1313.93 13.1144H1319.13L1318.68 16.3501H1309.26L1310.97 4.22024ZM1328.15 4C1328.85 4 1329.47 4.05365 1330 4.16094C1330.54 4.26824 1331.09 4.41223 1331.65 4.59294L1331.16 8.01506C1330.73 7.78918 1330.3 7.59435 1329.87 7.43059C1329.43 7.26682 1328.98 7.18494 1328.52 7.18494C1327.96 7.18494 1327.45 7.27247 1327.01 7.44753C1326.57 7.62259 1326.2 7.86823 1325.89 8.18447C1325.58 8.50071 1325.34 8.8847 1325.17 9.33647C1325.01 9.78824 1324.93 10.2852 1324.93 10.8273C1324.93 11.6179 1325.16 12.2249 1325.63 12.6485C1326.1 13.072 1326.78 13.2838 1327.66 13.2838C1328.56 13.2838 1329.56 13.0353 1330.65 12.5384L1330.2 15.7402C1329.63 15.9887 1329.01 16.1892 1328.34 16.3416C1327.67 16.4941 1327.01 16.5704 1326.37 16.5704C1325.39 16.5704 1324.53 16.4376 1323.8 16.1722C1323.07 15.9068 1322.46 15.5426 1321.97 15.0795C1321.48 14.6165 1321.11 14.0631 1320.87 13.4193C1320.63 12.7755 1320.51 12.0753 1320.51 11.3186C1320.51 10.8329 1320.56 10.3162 1320.66 9.76847C1320.76 9.2207 1320.93 8.67577 1321.18 8.13365C1321.42 7.59153 1321.73 7.072 1322.12 6.57506C1322.5 6.07812 1322.98 5.63765 1323.55 5.25365C1324.12 4.86965 1324.78 4.56471 1325.54 4.33882C1326.3 4.11294 1327.16 4 1328.15 4ZM1336.28 11.2C1336.28 11.4824 1336.31 11.7478 1336.36 11.9962C1336.42 12.2447 1336.51 12.4621 1336.63 12.6485C1336.76 12.8348 1336.92 12.9845 1337.13 13.0974C1337.33 13.2104 1337.58 13.2668 1337.87 13.2668C1338.22 13.2668 1338.55 13.1793 1338.85 13.0042C1339.14 12.8292 1339.4 12.5751 1339.62 12.2419C1339.83 11.9087 1340 11.5049 1340.12 11.0306C1340.25 10.5562 1340.31 10.0198 1340.31 9.42118C1340.31 9.13882 1340.29 8.86777 1340.23 8.608C1340.18 8.34823 1340.1 8.11953 1339.97 7.92188C1339.85 7.72423 1339.68 7.56894 1339.48 7.456C1339.28 7.34306 1339.02 7.28659 1338.72 7.28659C1338.24 7.28659 1337.85 7.42494 1337.53 7.70165C1337.22 7.97835 1336.97 8.32 1336.78 8.72659C1336.59 9.13318 1336.46 9.56235 1336.39 10.0141C1336.32 10.4659 1336.28 10.8612 1336.28 11.2ZM1339.18 4C1340.1 4 1340.91 4.12706 1341.61 4.38118C1342.3 4.6353 1342.88 4.98823 1343.34 5.44C1343.81 5.89177 1344.15 6.4367 1344.39 7.07482C1344.62 7.71294 1344.73 8.41035 1344.73 9.16706C1344.73 10.1384 1344.58 11.0701 1344.27 11.9624C1343.96 12.8546 1343.49 13.6423 1342.88 14.3256C1342.26 15.0089 1341.5 15.5539 1340.58 15.9605C1339.67 16.3671 1338.61 16.5704 1337.41 16.5704C1336.49 16.5704 1335.68 16.4489 1334.98 16.2061C1334.29 15.9633 1333.71 15.6188 1333.25 15.1727C1332.78 14.7266 1332.44 14.1929 1332.2 13.5718C1331.97 12.9506 1331.86 12.256 1331.86 11.488C1331.86 10.5054 1332.01 9.56518 1332.32 8.66729C1332.63 7.76941 1333.1 6.97318 1333.71 6.27859C1334.33 5.584 1335.09 5.03059 1336.01 4.61835C1336.92 4.20612 1337.98 4 1339.18 4ZM1349.88 16.3501H1345.66L1347.38 4.22024H1351.59L1349.88 16.3501ZM1362.66 4.22024H1366.74L1365.05 16.3501H1359.93L1357.05 8.86212L1356 16.3501H1351.9L1353.61 4.22024H1358.86L1361.64 11.4711L1362.66 4.22024Z" fill="#5E647A"/>
<path fill-rule="evenodd" clip-rule="evenodd" d="M1267.86 27.5047L1271.16 19.0352H1272.92L1276.22 27.5047H1274.41L1273.53 25.2442H1270.02L1269.14 27.5047H1267.86ZM1270.46 24.1169H1273.09L1271.78 20.7406L1270.46 24.1169ZM1284.23 27.167C1283.41 27.5333 1282.44 27.7164 1281.3 27.7164C1279.91 27.7164 1278.83 27.3253 1278.05 26.5433C1277.28 25.7612 1276.89 24.6701 1276.89 23.2699C1276.89 21.8431 1277.28 20.7453 1278.06 19.9766C1278.84 19.2079 1279.96 18.8235 1281.4 18.8235C1282.32 18.8235 1283.24 18.9322 1284.15 19.1497V20.5288C1283.12 20.1664 1282.25 19.9852 1281.56 19.9852C1280.66 19.9852 1279.97 20.2684 1279.49 20.835C1279.01 21.4015 1278.76 22.2055 1278.76 23.247C1278.76 24.2695 1279.02 25.0668 1279.54 25.6391C1280.07 26.2114 1280.79 26.4975 1281.72 26.4975C1282.55 26.4975 1283.39 26.2877 1284.23 25.868V27.167ZM1292.58 27.167C1291.76 27.5333 1290.78 27.7164 1289.65 27.7164C1288.26 27.7164 1287.18 27.3253 1286.4 26.5433C1285.63 25.7612 1285.24 24.6701 1285.24 23.2699C1285.24 21.8431 1285.63 20.7453 1286.41 19.9766C1287.19 19.2079 1288.3 18.8235 1289.75 18.8235C1290.67 18.8235 1291.59 18.9322 1292.5 19.1497V20.5288C1291.47 20.1664 1290.6 19.9852 1289.91 19.9852C1289.01 19.9852 1288.32 20.2684 1287.84 20.835C1287.35 21.4015 1287.11 22.2055 1287.11 23.247C1287.11 24.2695 1287.37 25.0668 1287.89 25.6391C1288.41 26.2114 1289.14 26.4975 1290.07 26.4975C1290.9 26.4975 1291.74 26.2877 1292.58 25.868V27.167ZM1294.12 27.5047V19.0352H1299.41V20.1969H1295.88V22.5603H1298.78V23.6934H1295.88V26.3029H1299.68V27.5047H1294.12ZM1301.16 27.5047V19.0352H1304.11C1305.14 19.0352 1305.87 19.2079 1306.31 19.5531C1306.76 19.8984 1306.98 20.4754 1306.98 21.2842C1306.98 22.1998 1306.68 22.9123 1306.09 23.4216C1305.5 23.9309 1304.68 24.1856 1303.62 24.1856H1302.88V27.5047H1301.16ZM1302.88 23.0239H1303.23C1303.83 23.0239 1304.31 22.8837 1304.66 22.6033C1305 22.3228 1305.18 21.9423 1305.18 21.4616C1305.18 20.6185 1304.64 20.1969 1303.57 20.1969H1302.88V23.0239ZM1310.44 27.5047V20.1969H1307.41V19.0352H1315.24V20.1969H1312.21V27.5047H1310.44ZM1316.43 27.5047V19.0352H1321.72V20.1969H1318.19V22.5603H1321.09V23.6934H1318.19V26.3029H1321.99V27.5047H1316.43ZM1323.47 27.5047V19.0352H1327.11C1328.43 19.0352 1329.43 19.3833 1330.13 20.0796C1330.83 20.7758 1331.18 21.7802 1331.18 23.0925C1331.18 24.4889 1330.81 25.5733 1330.07 26.3458C1329.33 27.1184 1328.29 27.5047 1326.96 27.5047H1323.47ZM1325.23 26.3029H1326.55C1327.47 26.3029 1328.17 26.0463 1328.62 25.5332C1329.08 25.0201 1329.31 24.2409 1329.31 23.1955C1329.31 22.3867 1329.12 21.7134 1328.76 21.1755C1328.5 20.8054 1328.2 20.5498 1327.85 20.4086C1327.49 20.2675 1326.97 20.1969 1326.3 20.1969H1325.23V26.3029ZM1335.79 27.5047V19.0352H1337.56V22.4745H1341.06V19.0352H1342.82V27.5047H1341.06V23.6419H1337.56V27.5047H1335.79ZM1344.94 27.5047V19.0352H1350.23V20.1969H1346.7V22.5603H1349.6V23.6934H1346.7V26.3029H1350.5V27.5047H1344.94ZM1351.98 27.5047V19.0352H1355.15C1356.87 19.0352 1357.73 19.7353 1357.73 21.1354C1357.73 21.6581 1357.58 22.134 1357.29 22.5632C1357 22.9924 1356.6 23.3214 1356.09 23.5503L1358.86 27.5047H1356.71L1354.61 24.0425H1353.64V27.5047H1351.98ZM1353.64 22.8808H1354.04C1355.32 22.8808 1355.96 22.3639 1355.96 21.33C1355.96 20.5746 1355.39 20.1969 1354.25 20.1969H1353.64V22.8808ZM1360.06 27.5047V19.0352H1365.36V20.1969H1361.83V22.5603H1364.72V23.6934H1361.83V26.3029H1365.63V27.5047H1360.06Z" fill="#5E647A"/>
</g>
<g clip-path="url(#clip4_2764_3082)">
<path d="M1439.7 4H1443.79L1435.27 12.6304C1432.18 15.7559 1427.18 15.7559 1424.1 12.6304L1415.57 4H1419.67L1426.15 10.557C1428.07 12.5135 1431.21 12.5375 1433.17 10.612C1433.18 10.5948 1433.2 10.5742 1433.22 10.557L1439.7 4ZM1419.62 28H1415.52L1424.1 19.3146C1427.19 16.1891 1432.18 16.1891 1435.27 19.3146L1443.84 28H1439.75L1433.22 21.3914C1431.3 19.435 1428.15 19.4109 1426.2 21.3364C1426.18 21.3536 1426.16 21.3742 1426.15 21.3914L1419.62 28Z" fill="#5E647A"/>
<path d="M1493.69 4H1493.69C1494.74 4.02063 1495.72 4.22693 1496.63 4.61891C1497.56 4.98682 1498.38 5.49914 1499.08 6.15244C1499.78 6.80917 1500.33 7.58281 1500.73 8.46991C1501.12 9.34327 1501.32 10.2682 1501.32 11.2447C1501.32 12.2418 1501.11 13.1908 1500.69 14.0848C1500.3 14.9547 1499.73 15.7249 1499.01 16.3989C1498.31 17.0521 1497.48 17.5748 1496.53 17.9633H1496.53C1495.59 18.3347 1494.59 18.5203 1493.52 18.5203H1484.58V27.9175H1481.43V4L1493.69 4ZM1493.52 15.6218C1494.15 15.6218 1494.75 15.5083 1495.31 15.2814C1495.89 15.0544 1496.38 14.7415 1496.81 14.3427C1497.23 13.9473 1497.57 13.4762 1497.81 12.9467C1498.06 12.4206 1498.18 11.8533 1498.18 11.2447C1498.18 10.6567 1498.06 10.0997 1497.81 9.57364C1497.57 9.04756 1497.23 8.57307 1496.81 8.17765C1496.38 7.7788 1495.89 7.46934 1495.31 7.23897C1494.75 7.01203 1494.15 6.89857 1493.52 6.89857H1484.58V15.6218H1493.52Z" fill="#5E647A"/>
<path d="M1458.58 18.5719C1460.16 18.5719 1461.65 19.239 1462.64 20.3874L1469.14 27.9209H1473.18L1464.3 17.4785C1463.31 16.3163 1461.81 15.639 1460.22 15.639H1454.06V6.93639H1463C1463.63 6.93639 1464.23 7.04986 1464.8 7.27679C1465.37 7.50716 1465.87 7.82006 1466.29 8.21547L1466.3 8.22235C1466.72 8.59713 1467.06 9.04756 1467.3 9.58052C1467.54 10.1066 1467.66 10.6739 1467.66 11.286C1467.66 11.8946 1467.54 12.4619 1467.3 12.988C1467.15 13.294 1466.97 13.5828 1466.76 13.8476L1468.81 16.1341C1468.83 16.1066 1468.86 16.0791 1468.88 16.0516C1469.49 15.3983 1469.95 14.6728 1470.28 13.8682C1470.63 13.0567 1470.81 12.1937 1470.81 11.2825C1470.81 10.306 1470.61 9.37765 1470.21 8.5043C1469.81 7.61375 1469.26 6.84011 1468.56 6.18338C1467.86 5.53009 1467.05 5.01089 1466.12 4.61891C1465.2 4.22693 1464.22 4.02063 1463.17 4H1452.48C1452.05 4 1451.67 4.1616 1451.36 4.45387C1451.06 4.73238 1450.91 5.07622 1450.91 5.46819V27.9175H1454.05V18.5719H1458.58Z" fill="#5E647A"/>
</g>
<path d="M1585.95 8.38422H1586.94C1587.19 8.38422 1587.39 8.58785 1587.39 8.83803V17.6409C1587.39 20.422 1588.9 22.1791 1591.7 22.1791C1594.51 22.1791 1596.01 20.422 1596.01 17.6409V8.83803C1596.01 8.58785 1596.22 8.38422 1596.47 8.38422H1597.45C1597.7 8.38422 1597.9 8.58785 1597.9 8.83803V17.6642C1597.9 21.4519 1595.83 23.8664 1591.7 23.8664C1587.58 23.8664 1585.5 21.4286 1585.5 17.6875V8.83803C1585.49 8.58785 1585.7 8.38422 1585.95 8.38422ZM1600.8 20.3755C1600.95 20.1893 1601.23 20.1719 1601.4 20.3348C1602.41 21.3239 1603.94 22.1791 1605.87 22.1791C1608.58 22.1791 1609.45 20.7188 1609.45 19.5551C1609.45 17.7282 1607.6 17.2279 1605.6 16.6809C1603.16 16.0409 1600.44 15.3602 1600.44 12.3697C1600.44 9.86203 1602.68 8.15149 1605.67 8.15149C1607.81 8.15149 1609.51 8.80894 1610.76 9.96676C1610.94 10.1297 1610.96 10.4089 1610.8 10.5951L1610.21 11.3224C1610.06 11.5028 1609.8 11.5144 1609.63 11.3573C1608.52 10.3159 1607.05 9.83876 1605.53 9.83876C1603.7 9.83876 1602.4 10.822 1602.4 12.2533C1602.4 13.7835 1604.16 14.2373 1606.1 14.7609C1608.58 15.4242 1611.41 16.198 1611.41 19.3922C1611.41 21.6031 1609.9 23.8606 1605.8 23.8606C1603.34 23.8606 1601.49 22.9937 1600.24 21.7369C1600.08 21.574 1600.06 21.3122 1600.2 21.1319L1600.8 20.3755ZM1613.66 8.83803C1613.66 8.58785 1613.86 8.38422 1614.11 8.38422H1618.86C1623.57 8.38422 1626.66 11.6889 1626.66 16.0002C1626.66 20.3348 1623.58 23.5929 1618.86 23.5929H1614.11C1613.86 23.5929 1613.66 23.3893 1613.66 23.1391V8.83803ZM1618.86 21.9057C1622.56 21.9057 1624.7 19.2584 1624.7 16.0002C1624.7 12.7129 1622.62 10.0715 1618.86 10.0715H1615.56V21.9057H1618.86ZM1645.59 18.0773C1645.59 14.8831 1647.69 12.3057 1651.04 12.3057C1654.39 12.3057 1656.49 14.8831 1656.49 18.0773C1656.49 21.2715 1654.39 23.8722 1651.04 23.8722C1647.69 23.8722 1645.59 21.2657 1645.59 18.0773ZM1654.68 18.0773C1654.68 15.8431 1653.39 13.8359 1651.04 13.8359C1648.69 13.8359 1647.37 15.8431 1647.37 18.0773C1647.37 20.3348 1648.69 22.342 1651.04 22.342C1653.39 22.342 1654.68 20.3348 1654.68 18.0773ZM1658.13 9.57112C1658.13 8.93112 1658.65 8.43076 1659.27 8.43076C1659.91 8.43076 1660.43 8.93112 1660.43 9.57112C1660.43 10.2111 1659.91 10.7348 1659.27 10.7348C1658.65 10.7348 1658.13 10.2053 1658.13 9.57112ZM1658.88 12.5791H1659.68C1659.93 12.5791 1660.13 12.7828 1660.13 13.0329V23.1391C1660.13 23.3893 1659.93 23.5929 1659.68 23.5929H1658.88C1658.63 23.5929 1658.43 23.3893 1658.43 23.1391V13.0329C1658.43 12.7828 1658.63 12.5791 1658.88 12.5791ZM1669.99 16.39C1669.99 14.4526 1669 13.8359 1667.53 13.8359C1666.18 13.8359 1664.9 14.6562 1664.26 15.5464V23.1391C1664.26 23.3893 1664.06 23.5929 1663.81 23.5929H1663.01C1662.76 23.5929 1662.56 23.3893 1662.56 23.1391V13.0329C1662.56 12.7828 1662.76 12.5791 1663.01 12.5791H1663.81C1664.06 12.5791 1664.26 12.7828 1664.26 13.0329V14.1733C1665.04 13.2599 1666.54 12.3057 1668.18 12.3057C1670.49 12.3057 1671.7 13.4693 1671.7 15.8606V23.1333C1671.7 23.3835 1671.49 23.5871 1671.24 23.5871H1670.45C1670.2 23.5871 1669.99 23.3835 1669.99 23.1333V16.39H1669.99ZM1630.98 16.0002C1630.98 11.3224 1634.43 8.13403 1638.74 8.13403C1641.29 8.13403 1643.08 9.24531 1644.29 10.7697C1644.44 10.9617 1644.39 11.2468 1644.18 11.3689L1643.33 11.8402C1643.14 11.9508 1642.89 11.8984 1642.75 11.7297C1641.85 10.6126 1640.39 9.82712 1638.74 9.82712C1635.47 9.82712 1632.94 12.3813 1632.94 16.006C1632.94 19.6075 1635.47 22.1849 1638.74 22.1849C1640.4 22.1849 1641.86 21.4169 1642.75 20.2824C1642.89 20.1079 1643.13 20.0613 1643.33 20.166L1644.19 20.6373C1644.41 20.7595 1644.46 21.0504 1644.31 21.2424C1643.05 22.7784 1641.29 23.8722 1638.74 23.8722C1634.43 23.8664 1630.98 20.678 1630.98 16.0002Z" fill="#5E647A"/>
<path d="M1565.32 30.8363C1573.52 30.8363 1580.16 24.1938 1580.16 15.9999C1580.16 7.80604 1573.52 1.16357 1565.32 1.16357C1557.13 1.16357 1550.49 7.80604 1550.49 15.9999C1550.49 24.1938 1557.13 30.8363 1565.32 30.8363Z" fill="#5E647A"/>
<path d="M1562.54 26.3159C1562.54 26.665 1562.27 26.8628 1561.93 26.7581C1557.45 25.3268 1554.19 21.1202 1554.19 16.1573C1554.19 11.1944 1557.45 6.98787 1561.93 5.55659C1562.27 5.45187 1562.54 5.64968 1562.54 5.99878V6.85987C1562.54 7.09259 1562.36 7.36605 1562.14 7.44168C1558.59 8.74496 1556.05 12.1544 1556.05 16.1515C1556.05 20.1486 1558.59 23.5581 1562.14 24.8613C1562.36 24.9428 1562.54 25.2104 1562.54 25.4431V26.3159Z" fill="#23252F"/>
<path d="M1566.25 23.1098C1566.25 23.3658 1566.04 23.5753 1565.78 23.5753H1564.86C1564.6 23.5753 1564.39 23.3658 1564.39 23.1098V21.6437C1562.37 21.3702 1561.38 20.2357 1561.11 18.6938C1561.06 18.432 1561.27 18.1935 1561.54 18.1935H1562.6C1562.82 18.1935 1563.01 18.3506 1563.05 18.5717C1563.25 19.4909 1563.78 20.1949 1565.4 20.1949C1566.6 20.1949 1567.45 19.5258 1567.45 18.5251C1567.45 17.5244 1566.95 17.1462 1565.2 16.8553C1562.6 16.5062 1561.37 15.7207 1561.37 13.6844C1561.37 12.1135 1562.56 10.8917 1564.4 10.6298V9.19275C1564.4 8.93675 1564.61 8.72729 1564.86 8.72729H1565.79C1566.04 8.72729 1566.25 8.93675 1566.25 9.19275V10.6706C1567.75 10.9382 1568.7 11.7877 1569.01 13.1957C1569.06 13.4633 1568.85 13.7135 1568.58 13.7135H1567.6C1567.39 13.7135 1567.22 13.5738 1567.16 13.3702C1566.89 12.4742 1566.25 12.0902 1565.14 12.0902C1563.92 12.0902 1563.28 12.6837 1563.28 13.5157C1563.28 14.3942 1563.64 14.8364 1565.53 15.1098C1568.08 15.4589 1569.39 16.1862 1569.39 18.3564C1569.39 20.0029 1568.17 21.3353 1566.25 21.6437V23.1098H1566.25Z" fill="#23252F"/>
<path d="M1568.72 26.7578C1568.38 26.8625 1568.1 26.6647 1568.1 26.3156V25.4545C1568.1 25.1985 1568.26 24.96 1568.51 24.8727C1572.06 23.5695 1574.6 20.16 1574.6 16.1629C1574.6 12.1658 1572.06 8.75637 1568.51 7.4531C1568.28 7.37164 1568.1 7.104 1568.1 6.87128V6.01019C1568.1 5.6611 1568.38 5.45746 1568.72 5.568C1573.2 6.99928 1576.45 11.2058 1576.45 16.1687C1576.45 21.12 1573.2 25.3207 1568.72 26.7578Z" fill="#23252F"/>
<g clip-path="url(#clip5_2764_3082)">
<path fill-rule="evenodd" clip-rule="evenodd" d="M1721.14 1.58837C1724.13 5.26312 1727.42 9.87963 1727.95 10.6264L1728.01 10.7121C1728.3 11.1082 1728.53 11.4028 1728.71 11.6264C1729.1 12.1229 1729.22 12.2701 1728.98 12.4055C1728.79 12.5146 1728.6 12.5506 1728.4 12.5506C1728.18 12.5506 1727.93 12.4431 1727.75 12.2691C1727.62 12.1461 1726.75 10.858 1725.55 8.98413C1724.64 7.55025 1723.87 6.36075 1723.85 6.34088C1723.8 6.29475 1723.8 6.29637 1725.46 9.28837C1726.5 11.1671 1727.21 12.5556 1727.21 12.6444C1727.21 12.8251 1727.16 12.9201 1726.94 13.1686C1726.57 13.5833 1726.41 14.049 1726.29 15.0129C1726.15 16.0934 1725.78 16.8568 1724.74 18.163C1724.14 18.9277 1724.04 19.0679 1723.89 19.3761C1723.69 19.7642 1723.64 19.9816 1723.62 20.4718C1723.6 20.99 1723.64 21.3248 1723.8 21.8201C1723.93 22.2539 1724.08 22.5404 1724.44 23.1131C1724.76 23.6075 1724.94 23.9749 1724.94 24.1186C1724.94 24.233 1724.96 24.2331 1725.45 24.1215C1726.62 23.8541 1727.57 23.3841 1728.11 22.808C1728.44 22.4514 1728.52 22.2545 1728.52 21.7659C1728.52 21.4462 1728.51 21.3794 1728.42 21.1955C1728.28 20.8961 1728.03 20.6474 1727.47 20.2616C1726.74 19.7561 1726.43 19.3493 1726.34 18.7896C1726.27 18.3305 1726.35 18.0065 1726.76 17.1493C1727.18 16.2619 1727.28 15.8837 1727.35 14.9893C1727.4 14.4114 1727.46 14.1835 1727.62 14.0006C1727.79 13.8099 1727.95 13.7452 1728.37 13.6866C1729.06 13.5912 1729.5 13.4104 1729.87 13.0735C1730.18 12.7812 1730.31 12.4995 1730.33 12.0755L1730.35 11.7542L1730.17 11.5475C1729.54 10.799 1720.71 1 1720.67 1C1720.66 1 1720.87 1.26475 1721.14 1.58837ZM1725.3 21.0581C1725.44 20.801 1725.36 20.4706 1725.12 20.3091C1724.9 20.1566 1724.54 20.2285 1724.54 20.4272C1724.54 20.4879 1724.58 20.532 1724.65 20.571C1724.78 20.6365 1724.79 20.7101 1724.69 20.8606C1724.59 21.0131 1724.6 21.1471 1724.71 21.2381C1724.9 21.385 1725.16 21.3042 1725.3 21.0581ZM1729.62 7.04063C1729.33 6.99613 1729.32 6.99088 1729.46 6.97025C1729.71 6.9305 1730.31 6.98462 1730.73 7.0845C1731.7 7.31775 1732.58 7.91525 1733.53 8.97625L1733.78 9.25813L1734.13 9.2C1735.64 8.95475 1737.18 9.14963 1738.46 9.74938C1738.82 9.91438 1739.37 10.2429 1739.44 10.3272C1739.46 10.3541 1739.5 10.5273 1739.53 10.7121C1739.63 11.3514 1739.58 11.8412 1739.39 12.2072C1739.28 12.4064 1739.28 12.4695 1739.35 12.64C1739.4 12.776 1739.56 12.8766 1739.72 12.8764C1740.04 12.876 1740.38 12.3544 1740.54 11.6287L1740.6 11.3405L1740.73 11.4839C1741.41 12.2708 1741.95 13.3439 1742.05 14.1076L1742.07 14.3068L1741.95 14.1257C1741.76 13.8142 1741.56 13.6021 1741.3 13.4311C1740.84 13.1227 1740.35 13.0179 1739.06 12.9491C1737.9 12.887 1737.24 12.7863 1736.58 12.5706C1735.47 12.2038 1734.91 11.7151 1733.59 9.9615C1733 9.18262 1732.64 8.7515 1732.28 8.40462C1731.46 7.61587 1730.65 7.20237 1729.62 7.0405V7.04063ZM1739.7 8.77975C1739.73 8.25775 1739.8 7.9135 1739.95 7.59912C1740 7.47463 1740.05 7.37288 1740.06 7.37288C1740.07 7.37288 1740.04 7.46463 1740.01 7.57688C1739.9 7.882 1739.89 8.29938 1739.96 8.78487C1740.05 9.40112 1740.1 9.48987 1740.74 10.1554C1741.04 10.4676 1741.4 10.8612 1741.52 11.0304L1741.76 11.3376L1741.52 11.118C1741.24 10.8494 1740.59 10.3255 1740.45 10.2507C1740.35 10.2005 1740.33 10.2014 1740.27 10.2612C1740.22 10.3164 1740.21 10.3994 1740.2 10.7913C1740.19 11.4023 1740.11 11.7945 1739.91 12.1865C1739.8 12.3986 1739.78 12.3534 1739.88 12.114C1739.95 11.9353 1739.96 11.8566 1739.96 11.2653C1739.96 10.0769 1739.82 9.79125 1739 9.30188C1738.79 9.17788 1738.45 8.999 1738.24 8.90438C1738.03 8.80988 1737.87 8.7275 1737.87 8.72137C1737.89 8.698 1738.69 8.9335 1739.01 9.0585C1739.49 9.24425 1739.57 9.26838 1739.63 9.246C1739.67 9.231 1739.69 9.11637 1739.7 8.77975ZM1729.31 7.86737C1729.24 8.78487 1729.59 10.0121 1730.17 10.8126C1730.61 11.4331 1731.3 11.9154 1731.81 11.9619C1732.15 11.9924 1732.25 11.8866 1732.1 11.6635C1731.89 11.3538 1731.63 10.8767 1731.56 10.6725C1731.52 10.5456 1731.43 10.1709 1731.36 9.83975C1731.12 8.70913 1730.88 8.26875 1730.34 7.93437C1730.14 7.8125 1729.71 7.653 1729.47 7.60763L1729.34 7.5835L1729.31 7.86737ZM1739.01 16.7701C1736.32 15.6761 1735.37 14.7265 1735.37 13.1243C1735.37 12.8884 1735.38 12.6955 1735.39 12.6955C1735.4 12.6955 1735.51 12.7734 1735.62 12.8685C1736.17 13.3104 1736.78 13.4991 1738.47 13.7484C1739.46 13.895 1740.02 14.0134 1740.54 14.1865C1742.18 14.7365 1743.19 15.8526 1743.43 17.373C1743.5 17.8147 1743.46 18.6431 1743.35 19.0798C1743.26 19.4246 1742.98 20.0461 1742.91 20.07C1742.89 20.0766 1742.87 19.9984 1742.87 19.8919C1742.84 19.321 1742.55 18.7652 1742.07 18.3489C1741.53 17.8755 1740.8 17.4988 1739.01 16.7701ZM1736.99 16.6497C1737.03 16.7634 1737.09 17.022 1737.12 17.2246C1737.34 18.5199 1736.66 19.5664 1735.36 19.9719C1735.22 20.0147 1734.67 20.1227 1734.14 20.2116C1733.07 20.3916 1732.6 20.5191 1732.12 20.7526C1731.78 20.9182 1731.37 21.1662 1731.39 21.1909C1731.4 21.1989 1731.48 21.1801 1731.56 21.1493C1732.17 20.9346 1732.84 20.8235 1733.86 20.7698C1734.27 20.7485 1734.73 20.7145 1734.89 20.6944C1735.8 20.5784 1736.43 20.2986 1736.92 19.7935C1737.19 19.5124 1737.36 19.2505 1737.49 18.8813C1737.57 18.6471 1737.58 18.56 1737.58 18.145C1737.58 17.7221 1737.57 17.6447 1737.48 17.3846C1737.37 17.0436 1737.23 16.7877 1737.05 16.5876L1736.92 16.4431L1736.99 16.6497ZM1738.35 19.4368C1738 18.6606 1737.91 17.9114 1738.11 17.2126C1738.13 17.1379 1738.16 17.0767 1738.18 17.0767C1738.2 17.0767 1738.29 17.1229 1738.37 17.1791C1738.54 17.2911 1738.87 17.4797 1739.74 17.9644C1740.84 18.5691 1741.47 19.0374 1741.89 19.5725C1742.27 20.041 1742.5 20.5746 1742.61 21.2254C1742.67 21.594 1742.63 22.481 1742.54 22.8521C1742.24 24.0225 1741.56 24.9417 1740.58 25.4783C1740.44 25.5568 1740.31 25.6213 1740.3 25.6216C1740.28 25.6219 1740.33 25.4878 1740.41 25.3234C1740.74 24.6281 1740.78 23.9519 1740.53 23.1992C1740.38 22.7384 1740.07 22.176 1739.44 21.2255C1738.71 20.1205 1738.53 19.8264 1738.35 19.4368ZM1731.63 21.9823C1730.5 22.1679 1729.26 22.7726 1728.26 23.624L1727.96 23.8775L1728.22 23.9188C1729.58 24.1336 1729.95 24.3243 1730.9 25.308C1731.44 25.874 1731.62 26 1732.07 26.1164C1732.74 26.2873 1733.39 25.9732 1733.61 25.376C1733.71 25.1091 1733.7 24.6672 1733.58 24.4452C1733.31 23.917 1732.52 23.7463 1732.13 24.1332C1731.81 24.4556 1731.9 24.9412 1732.3 25.0247C1732.39 25.044 1732.39 25.0399 1732.28 24.9888C1732.11 24.909 1732.03 24.7985 1732.03 24.6226C1732.03 24.2103 1732.49 23.9788 1732.93 24.1768C1733.25 24.3219 1733.37 24.5114 1733.37 24.8436C1733.37 25.3552 1732.94 25.7407 1732.44 25.6777C1732.17 25.644 1731.84 25.4707 1731.67 25.2699C1731.23 24.7646 1731.4 23.9671 1732.02 23.6611C1732.49 23.4282 1733.11 23.4856 1733.59 23.8062C1734.15 24.1747 1734.39 24.5115 1734.87 25.6168C1735.02 25.9766 1735.22 26.3818 1735.31 26.5169C1735.77 27.2041 1736.31 27.5411 1736.97 27.5411C1737.33 27.5411 1737.6 27.4744 1737.94 27.3018C1738.2 27.1734 1738.56 26.9295 1738.53 26.9034C1738.52 26.896 1738.42 26.9291 1738.3 26.977C1737.58 27.2591 1736.85 27.2398 1736.43 26.9271C1736.16 26.7304 1735.95 26.3384 1735.84 25.8481C1735.82 25.7633 1735.76 25.3885 1735.7 25.0152C1735.55 24.0693 1735.41 23.644 1735.08 23.156C1734.75 22.6567 1734.1 22.2377 1733.38 22.0506C1732.93 21.9339 1732.11 21.9021 1731.63 21.9823ZM1730.04 14.6681C1730.14 14.3036 1730.46 13.956 1730.78 13.8553C1730.99 13.7913 1731.41 13.8321 1731.61 13.9351C1732 14.1349 1732.29 14.5898 1732.22 14.9181C1732.15 15.3185 1731.51 15.6389 1730.77 15.6441C1730.39 15.6468 1730.25 15.5955 1730.11 15.401C1730.02 15.2805 1729.98 14.8905 1730.04 14.6681ZM1731.52 14.0779C1731.71 14.1975 1731.76 14.3744 1731.65 14.538C1731.57 14.6508 1731.32 14.7579 1731.15 14.7579C1730.88 14.7579 1730.59 14.5664 1730.59 14.391C1730.59 14.0386 1731.15 13.85 1731.52 14.0779ZM1789.42 15.0868C1788.82 13.0801 1789.81 11.4157 1791.93 10.881C1792.54 10.7275 1795.29 10.7968 1795.76 10.9775C1795.94 11.0436 1796.01 11.2977 1796.01 11.82C1796.01 12.2312 1796.06 12.7309 1796.11 12.93C1796.19 13.232 1796.15 13.2915 1795.83 13.2866C1795.54 13.2821 1795.37 13.1132 1795.12 12.6023C1794.73 11.786 1794.26 11.5265 1793.17 11.5235C1791.77 11.5194 1790.75 12.462 1790.91 13.6009C1791.02 14.342 1791.76 15.0712 1793.42 16.0737C1795 17.0274 1795.92 17.8116 1796.29 18.5142C1797.27 20.3927 1796.43 22.403 1794.25 23.4159C1793.12 23.9357 1791.24 23.9895 1789.92 23.5395L1789.07 23.2512V21.8955C1789.07 20.6677 1789.1 20.5395 1789.38 20.5395C1789.61 20.5395 1789.71 20.6943 1789.79 21.179C1790 22.3844 1790.91 23.1161 1792.22 23.1161C1793.49 23.1161 1794.39 22.4179 1794.73 21.1518C1794.87 20.6124 1794.85 20.4135 1794.56 19.8185C1794.21 19.1051 1793.62 18.6318 1791.59 17.4627C1790.47 16.814 1789.68 15.9466 1789.42 15.0868ZM1749.74 11.682C1749.46 11.682 1749.35 11.5916 1749.35 11.3599C1749.35 11.0531 1749.46 11.0379 1751.62 11.0379C1753.63 11.0379 1753.89 11.0681 1753.84 11.2989C1753.82 11.4426 1753.54 11.6417 1753.23 11.7417L1752.66 11.9236L1752.61 16.0302C1752.58 18.7705 1752.63 20.3512 1752.75 20.781C1753.12 22.0591 1754.23 22.7941 1755.81 22.7941C1756.91 22.7941 1757.55 22.5371 1758.36 21.7739C1759.22 20.9534 1759.36 20.1737 1759.36 16.1217C1759.36 12.1249 1759.29 11.795 1758.43 11.7121C1758.04 11.6742 1757.91 11.5834 1757.91 11.3497C1757.91 11.0585 1758.04 11.0379 1759.85 11.0379C1761.68 11.0379 1761.78 11.0557 1761.78 11.3599C1761.78 11.5584 1761.68 11.683 1761.5 11.6844C1760.75 11.691 1760.74 11.7622 1760.64 16.1449C1760.54 20.6962 1760.44 21.235 1759.52 22.3499C1759.25 22.6715 1758.62 23.1385 1758.11 23.3878C1757.28 23.7939 1757.02 23.8406 1755.57 23.8379C1754.23 23.8351 1753.81 23.7706 1753.15 23.4667C1752.17 23.0231 1751.54 22.449 1751.07 21.5863C1750.75 20.984 1750.72 20.6581 1750.64 16.5778C1750.56 11.9071 1750.52 11.682 1749.74 11.682ZM1764.84 11.682C1764.48 11.682 1764.37 11.6093 1764.37 11.3599C1764.37 11.058 1764.47 11.0386 1766.02 11.0511L1767.68 11.0642L1768.47 11.977C1768.9 12.479 1770.32 14.0494 1771.62 15.4666C1772.92 16.8837 1774.41 18.5324 1774.94 19.1303C1775.46 19.7283 1775.95 20.2174 1776.03 20.2174C1776.11 20.2174 1776.15 18.5284 1776.12 16.3381L1776.07 12.4589L1775.62 12.0705C1775.37 11.8568 1774.99 11.682 1774.77 11.682C1774.48 11.682 1774.38 11.5945 1774.38 11.3554C1774.38 11.0409 1774.46 11.0304 1776.6 11.0736C1778.41 11.1102 1778.82 11.1611 1778.82 11.3534C1778.82 11.4904 1778.59 11.6341 1778.28 11.6984C1777.98 11.759 1777.65 11.8924 1777.55 11.9948C1777.42 12.127 1777.35 13.8365 1777.32 17.8901L1777.27 23.5993H1776.8C1776.4 23.5993 1775.92 23.1455 1773.36 20.3381C1771.72 18.5444 1769.81 16.4126 1769.11 15.6009C1768.41 14.789 1767.78 14.1186 1767.72 14.1112C1767.53 14.0903 1767.58 21.3435 1767.77 22.032C1767.92 22.5685 1768.02 22.6609 1768.65 22.8304C1769.17 22.9668 1769.37 23.1051 1769.37 23.3106C1769.37 23.5745 1769.18 23.5993 1767.11 23.5993C1765.01 23.5993 1764.85 23.5782 1764.85 23.2974C1764.85 23.0917 1765 22.9651 1765.33 22.9002C1766.31 22.7036 1766.38 22.3915 1766.44 17.6203C1766.47 14.948 1766.42 13.0783 1766.32 12.6868C1766.13 11.9984 1765.67 11.682 1764.84 11.682ZM1781.77 11.682C1781.43 11.682 1781.32 11.6055 1781.32 11.3599C1781.32 11.0521 1781.43 11.0379 1783.74 11.0379C1786.06 11.0379 1786.16 11.0521 1786.16 11.3599C1786.16 11.5961 1786.06 11.682 1785.76 11.682C1785.54 11.682 1785.21 11.8299 1785.03 12.0106C1784.71 12.3296 1784.7 12.4881 1784.74 17.4188C1784.79 22.2319 1784.81 22.5104 1785.1 22.7267C1785.28 22.8524 1785.59 22.9551 1785.79 22.9551C1786.06 22.9551 1786.16 23.0481 1786.16 23.2773C1786.16 23.585 1786.06 23.5993 1783.74 23.5993C1781.48 23.5993 1781.32 23.579 1781.32 23.2979C1781.32 23.0711 1781.48 22.9711 1781.96 22.8943C1782.91 22.7419 1782.96 22.4299 1782.9 16.8625C1782.86 12.404 1782.84 12.126 1782.54 11.9104C1782.37 11.7847 1782.02 11.682 1781.77 11.682ZM1798.67 11.682C1798.44 11.682 1798.28 11.5595 1798.22 11.3599C1798.14 11.0485 1798.22 11.0379 1800.55 11.0379C1802.85 11.0379 1802.95 11.0521 1802.95 11.3599C1802.95 11.6074 1802.85 11.682 1802.49 11.682C1801.47 11.682 1801.5 11.8663 1803.03 16.0779C1803.82 18.2218 1804.58 20.2582 1804.72 20.6034L1804.99 21.231L1806.22 17.9461C1807.67 14.0795 1807.86 13.3645 1807.62 12.6593C1807.44 12.1678 1806.78 11.682 1806.27 11.682C1806.13 11.682 1806.02 11.5435 1806.02 11.3599C1806.02 11.0516 1806.13 11.0379 1808.52 11.0379C1810.92 11.0379 1811.03 11.0516 1811.03 11.3599C1811.03 11.5891 1810.92 11.682 1810.65 11.682C1809.97 11.682 1809.68 12.0431 1809.77 12.7445C1809.87 13.4668 1812.65 21.2279 1812.77 21.1117C1812.96 20.9229 1816.03 12.568 1816.03 12.2423C1816.03 11.8521 1815.76 11.682 1815.13 11.682C1814.85 11.682 1814.74 11.5932 1814.74 11.3599C1814.74 11.0557 1814.85 11.0379 1816.68 11.0379C1818.32 11.0379 1818.61 11.0759 1818.61 11.2879C1818.61 11.4254 1818.41 11.6079 1818.17 11.6932C1817.61 11.8857 1817.47 12.1054 1816.78 13.8848C1816.07 15.6962 1815.37 17.5075 1814.66 19.3189C1814.11 20.7278 1813.56 22.137 1813.01 23.5464C1812.97 23.6641 1812.7 23.7604 1812.42 23.7604H1811.91L1810.75 20.7407C1810.19 19.284 1809.63 17.8266 1809.07 16.3686C1808.59 15.0938 1808.55 15.0384 1808.36 15.4023C1808.26 15.6149 1807.49 17.5859 1806.66 19.7824L1805.15 23.7761L1804.59 23.728L1804.03 23.6799L1801.88 18.0559C1800.68 14.9138 1799.57 12.2663 1799.38 12.0569C1799.18 11.8506 1798.86 11.682 1798.67 11.682ZM1830.95 11.7502C1830.92 11.6891 1830.92 11.4692 1830.92 11.4692C1830.92 11.4692 1830.91 11.39 1830.95 11.3476C1830.98 11.3055 1830.99 11.3044 1831.11 11.2931L1831.11 11.293C1831.55 11.2515 1832.42 11.1816 1833.15 11.1497C1833.22 11.1469 1833.3 11.1435 1833.38 11.1397H1833.38C1834.18 11.1031 1835.62 11.0544 1836.61 11.1038C1838.5 11.1986 1839.85 12.1158 1840.31 13.6315C1840.77 15.1471 1840.53 16.5699 1839.9 17.4755C1839.27 18.3811 1838.22 19.1609 1836.47 19.1101C1835.03 19.0682 1834.64 18.7974 1834.33 18.581C1834.26 18.5352 1834.2 18.4919 1834.14 18.4538V20.3866C1834.15 21.7049 1834.16 22.338 1834.26 22.5724C1834.4 22.8879 1834.71 23.0823 1835.32 23.2313C1835.32 23.2313 1835.59 23.2955 1835.66 23.364C1835.73 23.4325 1835.73 23.5846 1835.73 23.5846C1835.73 23.5846 1835.75 23.7269 1835.69 23.7994C1835.63 23.8719 1835.52 23.8574 1835.52 23.8574L1832.84 23.8358L1831.23 23.8315C1831.23 23.8315 1831.06 23.8641 1830.99 23.7957C1830.93 23.7274 1830.94 23.585 1830.94 23.585C1830.94 23.585 1830.95 23.4316 1831.02 23.363C1831.1 23.2944 1831.37 23.2175 1831.37 23.2175C1832 23.0424 1832.27 22.8571 1832.41 22.5081C1832.52 22.2269 1832.52 21.705 1832.52 17.4471C1832.52 13.4092 1832.52 12.656 1832.42 12.4394C1832.29 12.1187 1831.94 12.0338 1831.46 11.9129H1831.46C1831.35 11.8878 1831.25 11.8616 1831.15 11.8345C1831.15 11.8345 1830.97 11.8115 1830.95 11.7502ZM1838.75 15.0451C1838.75 15.7072 1838.74 16.7439 1838.03 17.4065C1837.33 18.0691 1835.94 18.2505 1835 18.066C1834.71 18.0079 1834.54 17.9182 1834.41 17.8491L1834.39 17.8423L1834.15 17.7153L1834.14 15.3889C1834.13 13.9312 1834.14 12.9816 1834.18 12.8459C1834.21 12.0771 1835.34 11.9816 1835.9 12.0101C1838.26 12.0101 1838.68 14.0069 1838.75 15.0451ZM1823.43 11.1617L1823.22 11.239L1822.59 11.5659L1822.14 12.7034C1821.88 13.3291 1821.43 14.4776 1821.12 15.2557C1820.68 16.3636 1820.24 17.4703 1819.79 18.576C1819.68 18.8619 1819.33 19.7324 1819.02 20.5105C1818.71 21.2885 1818.4 22.029 1818.33 22.156L1818.29 22.224C1818.12 22.5499 1817.82 23.1161 1817.29 23.2017C1817.29 23.2017 1817 23.2305 1816.89 23.3375C1816.78 23.4446 1816.79 23.5321 1816.79 23.5321V23.667C1816.79 23.667 1816.8 23.7324 1816.86 23.7649C1816.92 23.7975 1817 23.7994 1817 23.7994L1818.95 23.7773H1820.96C1820.96 23.7773 1821.1 23.7939 1821.16 23.7484C1821.21 23.7029 1821.23 23.6354 1821.23 23.6354V23.4934C1821.23 23.4934 1821.2 23.3394 1821.12 23.2792C1821.04 23.2192 1820.74 23.1781 1820.74 23.1781C1819.94 23.0723 1819.8 22.4631 1819.9 21.9154C1819.95 21.6462 1820.27 20.6508 1820.63 19.6485L1820.76 19.3021L1822.86 19.286C1824.02 19.2771 1825.02 19.2831 1825.09 19.2994C1825.18 19.3225 1825.31 19.5826 1825.68 20.5091C1826.25 21.9129 1826.3 22.0839 1826.17 22.3465C1826.16 22.3625 1826.15 22.3801 1826.15 22.3991C1826.03 22.6531 1825.8 23.1466 1825.22 23.1969C1825.22 23.1969 1824.91 23.2075 1824.84 23.2994C1824.76 23.3914 1824.78 23.4971 1824.78 23.4971V23.6376C1824.78 23.6376 1824.8 23.72 1824.84 23.7526C1824.88 23.7852 1824.94 23.777 1824.94 23.777L1826.85 23.7633L1829.54 23.7631C1829.54 23.7631 1829.65 23.7744 1829.67 23.7339C1829.7 23.6933 1829.71 23.6455 1829.71 23.6455V23.4589C1829.71 23.4589 1829.7 23.3596 1829.65 23.3049C1829.59 23.2502 1829.25 23.1925 1829.25 23.1925C1828.8 23.1206 1828.58 22.7529 1828.41 22.479C1828.37 22.4091 1828.33 22.3454 1828.3 22.2943C1828.22 22.1899 1827.95 21.6179 1827.73 21.0678C1827.52 20.5176 1827.04 19.2749 1826.66 18.3062C1826.28 17.3376 1825.76 15.9864 1825.49 15.3036C1825.07 14.2075 1824.64 13.1113 1824.22 12.0149L1824.22 12.0146C1823.98 11.4066 1823.89 11.1613 1823.86 11.128C1823.78 11.0203 1823.51 11.128 1823.51 11.128C1823.51 11.128 1823.48 11.1405 1823.43 11.1617ZM1823.39 14.8269C1823.28 14.5532 1823.17 14.279 1823.06 14.0041C1822.88 13.5567 1822.81 13.4538 1822.76 13.5461C1822.74 13.5731 1822.63 13.8789 1822.51 14.2256C1821.73 16.4706 1821.38 17.4815 1821.31 17.672C1821.26 17.7917 1821.23 17.9151 1821.23 17.9463C1821.23 17.982 1821.86 18.0029 1822.95 18.0029C1823.89 18.0029 1824.66 17.9911 1824.66 17.9767C1824.66 17.9624 1824.58 17.7481 1824.48 17.5004C1824.37 17.2528 1824.12 16.6343 1823.92 16.1261C1823.74 15.6927 1823.57 15.2596 1823.39 14.8269Z" fill="#5E647A"/>
</g>
<g clip-path="url(#clip6_2764_3082)">
<path d="M1923.43 24.2547C1922.62 24.2547 1921.81 24.2311 1921.01 24.1774C1920.17 24.1208 1919.33 24.004 1918.5 23.828V9.48212C1919.18 9.3511 1919.94 9.26375 1920.75 9.19655C1921.56 9.12936 1922.31 9.09912 1923.02 9.09912C1923.96 9.09912 1924.82 9.16631 1925.61 9.30742C1926.4 9.43845 1927.08 9.67027 1927.65 9.99616C1928.23 10.3254 1928.67 10.7521 1928.99 11.2896C1929.31 11.8272 1929.47 12.4857 1929.47 13.2618C1929.47 14.4444 1928.9 15.3761 1927.76 16.057C1928.71 16.4064 1929.34 16.9003 1929.68 17.505C1930.02 18.1199 1930.2 18.8086 1930.2 19.5746C1930.2 21.1301 1929.63 22.2926 1928.5 23.072C1927.35 23.8716 1925.67 24.2547 1923.43 24.2547ZM1921.75 15.0827H1923.37C1924.4 15.0827 1925.12 14.9517 1925.57 14.6896C1926.01 14.4276 1926.23 14.0009 1926.23 13.4197C1926.23 12.8183 1926 12.4017 1925.55 12.1598C1925.09 11.9179 1924.43 11.7969 1923.55 11.7969C1923.26 11.7969 1922.96 11.7969 1922.63 11.807C1922.3 11.8171 1922.01 11.8305 1921.75 11.8608C1921.75 11.8608 1921.75 15.0827 1921.75 15.0827ZM1921.75 17.626V21.4493C1921.99 21.4829 1922.25 21.5031 1922.54 21.5165C1922.82 21.5299 1923.14 21.54 1923.48 21.54C1924.48 21.54 1925.28 21.3989 1925.89 21.1133C1926.51 20.8278 1926.81 20.3037 1926.81 19.5343C1926.81 18.8556 1926.56 18.3618 1926.05 18.0762C1925.53 17.7805 1924.8 17.6394 1923.84 17.6394H1921.75V17.626H1921.75Z" fill="#5E647A"/>
<path fill-rule="evenodd" clip-rule="evenodd" d="M1908.13 24.4768C1912.76 21.2299 1913.88 14.8422 1910.64 10.2095C1909.95 9.23355 1909.1 8.38447 1908.13 7.70044H1915.83V24.4768H1908.13Z" fill="#5E647A"/>
<path fill-rule="evenodd" clip-rule="evenodd" d="M1892.01 16.0873C1892.01 19.4281 1893.64 22.5594 1896.38 24.4743H1888.67V7.70044H1896.38C1893.64 9.61528 1892.01 12.7466 1892.01 16.0873Z" fill="#5E647A"/>
<path d="M1902.25 24.4641C1906.88 24.4641 1910.63 20.7118 1910.63 16.083C1910.63 11.4543 1906.88 7.7019 1902.25 7.7019C1897.62 7.7019 1893.87 11.4543 1893.87 16.083C1893.87 20.7118 1897.62 24.4641 1902.25 24.4641Z" fill="#5E647A"/>
<path d="M1906.18 16.4314L1906.17 16.4228L1906.17 16.4213C1906.17 16.4126 1906.17 16.4035 1906.17 16.3941L1906.17 16.3933L1906.16 16.3926L1906.16 16.3919L1906.16 16.3911L1906.16 16.3904L1906.16 16.3897L1906.16 16.3882C1906.06 16.0592 1905.87 15.7674 1905.6 15.5506L1905.6 15.5499C1905.59 15.5439 1905.59 15.5372 1905.58 15.5312L1905.57 15.5231L1905.56 15.5171L1905.56 15.5142L1905.55 15.509L1905.55 15.5061L1905.54 15.5008L1905.53 15.498L1905.53 15.492L1905.52 15.4896L1905.51 15.4835L1905.51 15.4811L1905.5 15.4755L1905.5 15.4731L1905.49 15.4655L1905.49 15.4624L1905.48 15.4567L1905.47 15.4536L1905.47 15.448L1905.46 15.4448L1905.45 15.4392L1905.45 15.436L1905.44 15.4297L1905.44 15.4265L1905.43 15.4206L1905.42 15.4174L1905.41 15.4115L1905.41 15.4083L1905.4 15.4024L1905.39 15.3993L1905.38 15.3933L1905.38 15.3906L1905.37 15.3846L1905.36 15.3818L1905.35 15.3763L1905.35 15.3735L1905.34 15.3672L1905.33 15.3645L1905.32 15.3582L1905.31 15.3554L1905.3 15.3492L1905.3 15.3458L1905.29 15.3396L1905.28 15.3362L1905.27 15.3303L1905.26 15.3269L1905.25 15.321L1905.25 15.3169L1905.24 15.3162C1905.24 15.3128 1905.23 15.3103 1905.23 15.3067C1904.99 15.1835 1904.73 15.1017 1904.46 15.0648C1904.54 14.9844 1904.61 14.8983 1904.67 14.8073L1904.68 14.7927L1904.68 14.7923L1904.68 14.7851L1904.69 14.7754L1904.69 14.771L1904.7 14.7612L1904.7 14.7567L1904.71 14.747L1904.71 14.7425L1904.72 14.7328L1904.72 14.7283L1904.73 14.7185L1904.73 14.714L1904.73 14.7047L1904.74 14.7002L1904.74 14.6909L1904.74 14.6868L1904.75 14.6775L1904.75 14.6734L1904.76 14.6641L1904.76 14.6599L1904.76 14.6509L1904.77 14.6469L1904.77 14.6379L1904.77 14.6338L1904.78 14.6249L1904.78 14.6207L1904.79 14.6125L1904.79 14.6084L1904.79 14.6002L1904.8 14.5961L1904.8 14.5883L1904.8 14.5841L1904.81 14.5763L1904.81 14.5726L1904.81 14.5648L1904.81 14.561L1904.82 14.5533L1904.82 14.5496L1904.82 14.5417L1904.83 14.538L1904.83 14.5306L1904.83 14.5268L1904.83 14.5194L1904.84 14.5157L1904.84 14.5082L1904.84 14.5045L1904.84 14.4959L1904.85 14.4848C1904.85 14.4762 1904.86 14.468 1904.86 14.4595L1904.86 14.4591C1904.98 14.176 1905 13.8649 1904.94 13.5663L1904.94 13.5656L1904.94 13.5642L1904.94 13.5635L1904.94 13.5627L1904.94 13.5619L1904.94 13.5612L1904.94 13.5605L1904.93 13.5598C1904.93 13.5514 1904.93 13.5431 1904.93 13.535V13.5331L1904.93 13.5324L1904.93 13.5316L1904.93 13.5309L1904.93 13.5316L1904.92 13.5252C1904.92 13.5135 1904.92 13.5018 1904.92 13.4899C1904.91 13.4782 1904.91 13.4662 1904.91 13.4549L1904.9 13.447L1904.9 13.4455C1904.9 13.4375 1904.9 13.4295 1904.89 13.4215L1904.89 13.4208L1904.89 13.4201L1904.89 13.4194L1904.89 13.4186L1904.89 13.4179L1904.89 13.4171L1904.89 13.4164C1904.8 13.1236 1904.63 12.864 1904.39 12.6713L1904.39 12.6705C1904.39 12.6649 1904.38 12.6596 1904.37 12.6539L1904.36 12.6469L1904.35 12.6416L1904.35 12.6388L1904.35 12.6338L1904.34 12.631L1904.34 12.626L1904.33 12.6232L1904.33 12.6189L1904.32 12.6161L1904.31 12.6108L1904.31 12.608L1904.3 12.6027L1904.3 12.5998L1904.29 12.5946L1904.29 12.5921L1904.28 12.5869L1904.28 12.5844L1904.27 12.5792L1904.27 12.5767L1904.26 12.5718L1904.25 12.5694L1904.24 12.5645L1904.24 12.5621L1904.23 12.5572L1904.23 12.5547L1904.22 12.5498L1904.22 12.5474L1904.21 12.5418L1904.2 12.5394L1904.19 12.5337L1904.19 12.5313L1904.18 12.5261L1904.18 12.5237L1904.17 12.5184L1904.16 12.5153L1904.15 12.51L1904.15 12.5068L1904.14 12.5016L1904.14 12.4984L1904.13 12.4925L1904.12 12.4898L1904.11 12.4839L1904.11 12.4811L1904.1 12.4755L1904.09 12.4727L1904.08 12.4672L1904.07 12.4638L1904.07 12.4631L1904.06 12.4547C1903.6 12.2169 1903.02 12.1452 1902.43 12.2955L1902.28 12.3345L1901.89 10.8357L1901 11.0644L1901.39 12.5574L1900.67 12.7404L1900.29 11.2517L1899.4 11.4804L1899.78 12.9734L1897.94 13.4468L1898.19 14.398L1898.93 14.2077C1899.17 14.1445 1899.42 14.2922 1899.49 14.5375V14.5383L1900.51 18.541C1900.56 18.7048 1900.46 18.8717 1900.29 18.914L1899.64 19.081L1899.68 20.2124L1901.52 19.7402L1901.91 21.2305L1902.8 21.0011L1902.42 19.5074L1903.13 19.3244L1903.51 20.8179L1904.41 20.5886L1904.02 19.089C1904.17 19.0496 1904.3 19.016 1904.39 18.9927C1905.05 18.8233 1905.58 18.4365 1905.91 17.9546L1905.92 17.9385L1905.92 17.9381L1905.92 17.9306L1905.93 17.9194L1905.93 17.9138L1905.94 17.9026L1905.94 17.897L1905.95 17.8862L1905.95 17.8805L1905.96 17.8697L1905.96 17.8645L1905.97 17.8537L1905.97 17.8484L1905.98 17.8376L1905.98 17.8323L1905.99 17.8219L1905.99 17.8167L1905.99 17.8063L1906 17.801L1906 17.7913L1906.01 17.786L1906.01 17.7763L1906.02 17.7711L1906.02 17.7617L1906.02 17.7565L1906.03 17.7472L1906.03 17.742L1906.04 17.7327L1906.04 17.7278L1906.04 17.7185L1906.05 17.7137L1906.05 17.7047L1906.05 17.7006L1906.06 17.6916L1906.06 17.6875L1906.06 17.6785L1906.07 17.6744L1906.07 17.6655L1906.07 17.6614L1906.08 17.6524L1906.08 17.6483L1906.08 17.6393L1906.09 17.6352L1906.09 17.6267L1906.09 17.6225L1906.1 17.614L1906.1 17.6103L1906.1 17.6006L1906.11 17.5883C1906.11 17.5787 1906.12 17.5697 1906.12 17.5604L1906.12 17.5594C1906.25 17.2409 1906.28 16.8911 1906.21 16.5552L1906.21 16.5545L1906.21 16.5537L1906.21 16.553L1906.21 16.5523L1906.21 16.5515L1906.21 16.5508L1906.21 16.55L1906.2 16.5493C1906.2 16.5403 1906.2 16.5312 1906.2 16.522V16.5201L1906.2 16.5194L1906.2 16.5187L1906.2 16.5179L1906.2 16.5172L1906.2 16.5165L1906.2 16.5157L1906.2 16.515L1906.2 16.5142L1906.19 16.5135L1906.19 16.5128L1906.19 16.512L1906.19 16.5113L1906.19 16.5106L1906.19 16.5077C1906.19 16.4946 1906.19 16.4811 1906.18 16.4684C1906.18 16.4607 1906.18 16.447 1906.18 16.4314ZM1900.94 13.7535C1901.09 13.7145 1901.72 13.5564 1901.93 13.5025C1902.26 13.418 1902.58 13.4508 1902.84 13.5731L1902.84 13.5769L1902.85 13.5786L1902.85 13.5814L1902.86 13.5827L1902.86 13.5855L1902.86 13.5869L1902.87 13.5897L1902.87 13.5911L1902.88 13.5939L1902.88 13.5953L1902.88 13.598L1902.89 13.5994L1902.89 13.6022L1902.89 13.6036L1902.9 13.6064L1902.9 13.6078L1902.91 13.6105L1902.91 13.6119L1902.92 13.6147L1902.92 13.6161L1902.92 13.6193L1902.93 13.6207L1902.93 13.6238L1902.93 13.6252L1902.94 13.6284L1902.94 13.6298L1902.94 13.6322L1902.95 13.6336L1902.95 13.6361L1902.95 13.6374L1902.96 13.6399L1902.96 13.6413L1902.96 13.6437L1902.97 13.6451L1902.97 13.6475L1902.97 13.6493L1902.98 13.6517L1902.98 13.6528L1902.98 13.6553L1902.98 13.6563L1902.99 13.6588L1902.99 13.6598L1902.99 13.6623L1903 13.6633L1903 13.6662L1903 13.6672L1903 13.6697L1903.01 13.673C1903.01 13.6755 1903.02 13.6791 1903.02 13.6815C1903.15 13.7796 1903.25 13.9163 1903.29 14.0721L1903.3 14.0743C1903.3 14.0783 1903.3 14.083 1903.3 14.087L1903.3 14.0877L1903.3 14.0921C1903.3 14.0988 1903.31 14.1041 1903.31 14.1106C1903.31 14.1172 1903.31 14.124 1903.31 14.1308L1903.31 14.1351L1903.31 14.1359C1903.31 14.1404 1903.32 14.1448 1903.32 14.149L1903.32 14.1512C1903.35 14.3104 1903.33 14.476 1903.27 14.6245L1903.26 14.6379L1903.26 14.6443L1903.26 14.6484L1903.26 14.6506L1903.25 14.6543L1903.25 14.6566L1903.25 14.6606L1903.25 14.6628L1903.25 14.6669L1903.25 14.6692L1903.24 14.6733L1903.24 14.6755L1903.24 14.6796L1903.24 14.6818L1903.24 14.6859L1903.24 14.6881L1903.24 14.6922L1903.23 14.6949L1903.23 14.699L1903.23 14.7016L1903.23 14.7057L1903.23 14.7083L1903.22 14.7125L1903.22 14.7151L1903.22 14.7196L1903.22 14.7222L1903.21 14.7267L1903.21 14.7293L1903.21 14.7338L1903.21 14.7364L1903.21 14.7409L1903.2 14.7435L1903.2 14.748L1903.2 14.7507L1903.2 14.7551L1903.19 14.7578L1903.19 14.7623L1903.19 14.7648L1903.19 14.7693L1903.19 14.772L1903.18 14.7769L1903.18 14.7795L1903.18 14.7844L1903.18 14.787L1903.17 14.7919L1903.17 14.7945L1903.17 14.7994L1903.16 14.8028L1903.16 14.8103C1902.99 15.0401 1902.72 15.2258 1902.4 15.3102C1902.19 15.3634 1901.56 15.528 1901.41 15.5671L1900.94 13.7535ZM1904.42 16.8226L1904.43 16.8269L1904.43 16.8277C1904.43 16.8328 1904.43 16.8368 1904.43 16.8419L1904.43 16.8426L1904.43 16.8434L1904.43 16.8442L1904.43 16.8449C1904.47 17.0205 1904.44 17.2028 1904.36 17.3622L1904.35 17.3768L1904.35 17.3835L1904.35 17.3887L1904.34 17.3913L1904.34 17.3955L1904.34 17.3981L1904.34 17.4022L1904.34 17.4048L1904.33 17.4094L1904.33 17.4119L1904.33 17.4164L1904.33 17.4191L1904.32 17.4235L1904.32 17.4262L1904.32 17.4307L1904.32 17.4333L1904.31 17.4378L1904.31 17.4404L1904.31 17.4449L1904.31 17.4475L1904.31 17.452L1904.3 17.4546L1904.3 17.4591L1904.3 17.4617L1904.3 17.4662L1904.29 17.4689L1904.29 17.4738L1904.29 17.4764L1904.29 17.4813L1904.28 17.4839L1904.28 17.4895L1904.28 17.4921L1904.28 17.4977L1904.27 17.5003L1904.27 17.5059L1904.27 17.5089L1904.27 17.5145L1904.26 17.5175L1904.26 17.5235L1904.26 17.5265L1904.25 17.5325L1904.25 17.5355L1904.25 17.5415L1904.24 17.5445L1904.24 17.5505L1904.24 17.5535L1904.23 17.5595L1904.23 17.5633L1904.22 17.5715C1904.03 17.8259 1903.7 18.0351 1903.31 18.1353C1903.07 18.1989 1902.32 18.3934 1902.14 18.4396L1901.64 16.4696C1901.82 16.4226 1902.56 16.2355 1902.81 16.172C1903.2 16.0718 1903.58 16.1003 1903.88 16.2267L1903.89 16.2308L1903.89 16.2329L1903.9 16.2356L1903.9 16.2366L1903.91 16.2397L1903.91 16.2407L1903.92 16.2438L1903.92 16.2448L1903.93 16.2479L1903.93 16.2493L1903.94 16.2524L1903.94 16.2538L1903.95 16.2569L1903.95 16.2583L1903.96 16.2614L1903.96 16.2628L1903.96 16.2655L1903.97 16.267L1903.97 16.2697L1903.97 16.2711L1903.98 16.2739L1903.98 16.2753L1903.99 16.278L1903.99 16.2795L1904 16.2822L1904 16.2836L1904 16.2864L1904.01 16.2878L1904.01 16.2905L1904.01 16.292L1904.02 16.2947L1904.02 16.2961L1904.03 16.2989L1904.03 16.3003L1904.03 16.3034L1904.04 16.3048L1904.04 16.3082L1904.04 16.3096L1904.05 16.3128L1904.05 16.3141L1904.06 16.3175L1904.06 16.3189L1904.06 16.322L1904.06 16.3235L1904.07 16.3259L1904.07 16.3273L1904.08 16.3305L1904.08 16.3347C1904.09 16.3378 1904.09 16.3406 1904.1 16.3438C1904.24 16.4443 1904.35 16.5918 1904.41 16.7625L1904.41 16.7654C1904.41 16.7701 1904.41 16.7741 1904.41 16.7788L1904.41 16.7796L1904.42 16.7839C1904.42 16.7905 1904.42 16.797 1904.42 16.8042C1904.43 16.805 1904.43 16.813 1904.43 16.823L1904.42 16.8226Z" fill="#18153A"/>
</g>
<defs>
<clipPath id="clip0_2764_3082">
<rect width="114" height="24" fill="white" transform="translate(-104 4)"/>
</clipPath>
<clipPath id="clip1_2764_3082">
<rect width="113.723" height="24" fill="white" transform="translate(358.235 4)"/>
</clipPath>
<clipPath id="clip2_2764_3082">
<rect width="120" height="24" fill="white" transform="translate(1071.27 4)"/>
</clipPath>
<clipPath id="clip3_2764_3082">
<rect width="128.25" height="24" fill="white" transform="translate(1239.27 4)"/>
</clipPath>
<clipPath id="clip4_2764_3082">
<rect width="85.8" height="24" fill="white" transform="translate(1415.52 4)"/>
</clipPath>
<clipPath id="clip5_2764_3082">
<rect width="120" height="30" fill="white" transform="translate(1720.67 1)"/>
</clipPath>
<clipPath id="clip6_2764_3082">
<rect width="135.469" height="17" fill="white" transform="translate(1888.67 7.5)"/>
</clipPath>
</defs>
</svg>
