<svg width="32" height="32" viewBox="0 0 32 32" fill="none" xmlns="http://www.w3.org/2000/svg">
<path fill-rule="evenodd" clip-rule="evenodd" d="M1.01312 31.9999C0.453591 31.9999 -0.00368546 31.5449 0.0349554 30.9867C0.569803 23.2604 7.17565 17.1546 15.2461 17.1546H32V25.3114H15.2461C11.8047 25.3114 8.95441 27.7755 8.45466 30.9906C8.36871 31.5435 7.92337 31.9999 7.36384 31.9999H1.01312Z" fill="#535FE6"/>
<path fill-rule="evenodd" clip-rule="evenodd" d="M0 30.6903C0 19.3886 9.37624 10.2267 20.9424 10.2267H32V18.4121H20.9424C14.0027 18.4121 8.37696 23.9092 8.37696 30.6903V30.9868C8.37696 31.5463 7.92337 31.9999 7.36384 31.9999H1.01312C0.453591 31.9999 0 31.5463 0 30.9868V30.6903Z" fill="#4452EE"/>
<path fill-rule="evenodd" clip-rule="evenodd" d="M0 29.3046C0 17.675 9.37624 8.24736 20.9424 8.24736H32V16.6703H20.9424C14.0027 16.6703 8.37696 22.3268 8.37696 29.3046V30.9868C8.37696 31.5463 7.92337 31.9999 7.36384 31.9999H1.01312C0.453591 31.9999 0 31.5463 0 30.9868V29.3046Z" fill="#1B1A1A"/>
<path fill-rule="evenodd" clip-rule="evenodd" d="M0 22.2681C0 10.8808 9.37624 1.64954 20.9424 1.64954H32V9.89697H20.9424C14.0027 9.89697 8.37696 15.4357 8.37696 22.2681V30.9869C8.37696 31.5465 7.92337 32.0001 7.36384 32.0001H1.01312C0.453591 32.0001 0 31.5465 0 30.9869V22.2681Z" fill="#0F828C"/>
<path fill-rule="evenodd" clip-rule="evenodd" d="M0 20.9424C0 9.37624 9.37624 0 20.9424 0H30.9869C31.5464 0 32 0.453591 32 1.01312V8.37696H20.9424C14.0027 8.37696 8.37696 14.0027 8.37696 20.9424V30.9869C8.37696 31.5464 7.92337 32 7.36384 32H1.01312C0.453591 32 0 31.5464 0 30.9869V20.9424Z" fill="#20C1CF"/>
<path fill-rule="evenodd" clip-rule="evenodd" d="M24.7661 32C24.2065 32 23.7529 31.5464 23.7529 30.9869V0H30.9872C31.5468 0 32.0004 0.45359 32.0004 1.01312V30.9869C32.0004 31.5464 31.5468 32 30.9872 32H24.7661Z" fill="#535FE6"/>
</svg>
