<svg width="24" height="24" viewBox="0 0 24 24" fill="none" xmlns="http://www.w3.org/2000/svg">
<path fill-rule="evenodd" clip-rule="evenodd" d="M1.99634 5.9975C1.99634 5.44521 2.44405 4.9975 2.99634 4.9975H21.0038C21.5561 4.9975 22.0038 5.44521 22.0038 5.9975C22.0038 6.54978 21.5561 6.9975 21.0038 6.9975H2.99634C2.44405 6.9975 1.99634 6.54978 1.99634 5.9975Z" fill="white"/>
<path fill-rule="evenodd" clip-rule="evenodd" d="M1.99634 12C1.99634 11.4477 2.44405 11 2.99634 11H17.0022C17.5545 11 18.0022 11.4477 18.0022 12C18.0022 12.5523 17.5545 13 17.0022 13H2.99634C2.44405 13 1.99634 12.5523 1.99634 12Z" fill="white"/>
<path fill-rule="evenodd" clip-rule="evenodd" d="M1.99634 18.0025C1.99634 17.4502 2.44405 17.0025 2.99634 17.0025H13.0005C13.5528 17.0025 14.0005 17.4502 14.0005 18.0025C14.0005 18.5548 13.5528 19.0025 13.0005 19.0025H2.99634C2.44405 19.0025 1.99634 18.5548 1.99634 18.0025Z" fill="white"/>
</svg>
